<?xml version="1.0" standalone="no"?>
<!DOCTYPE svg PUBLIC "-//W3C//DTD SVG 20010904//EN"
 "http://www.w3.org/TR/2001/REC-SVG-20010904/DTD/svg10.dtd">
<svg version="1.0" xmlns="http://www.w3.org/2000/svg"
 width="370.000000pt" height="372.000000pt" viewBox="0 0 370.000000 372.000000"
 preserveAspectRatio="xMidYMid meet">

<g transform="translate(0.000000,372.000000) scale(0.100000,-0.100000)"
fill="#000000" stroke="none">
<path d="M726 3712 c-3 -5 -10 -41 -16 -79 -13 -92 -25 -125 -116 -302 -71
-140 -77 -156 -82 -226 -6 -96 10 -153 59 -209 38 -42 93 -75 106 -62 4 3 -1
37 -11 74 -27 106 -8 171 91 301 77 102 95 105 139 19 40 -79 38 -140 -10
-250 -54 -123 -39 -145 60 -89 98 57 153 145 154 246 0 49 -7 75 -35 133 -44
92 -116 201 -210 317 -86 106 -121 140 -129 127z"/>
<path d="M2817 3714 c-3 -6 -11 -41 -17 -78 -15 -97 -33 -144 -119 -309 l-76
-148 0 -97 c0 -122 24 -179 93 -223 56 -36 76 -37 69 -6 -31 131 -31 137 -19
184 12 44 101 188 149 239 31 33 54 20 90 -49 39 -77 36 -140 -10 -243 -20
-45 -37 -89 -37 -98 0 -27 29 -30 75 -8 65 32 111 77 145 144 64 129 27 240
-162 491 -98 131 -173 214 -181 201z"/>
<path d="M1766 3688 c-3 -13 -10 -54 -17 -92 -9 -53 -33 -111 -96 -237 -92
-182 -107 -237 -93 -341 12 -86 69 -161 139 -183 23 -7 23 -6 17 31 -20 121
-19 161 7 216 39 82 129 202 155 206 28 4 56 -28 77 -87 24 -71 19 -126 -21
-216 -49 -109 -49 -112 -26 -119 30 -10 84 16 137 65 67 62 96 117 102 192 5
58 2 68 -41 153 -71 142 -288 434 -322 434 -8 0 -16 -10 -18 -22z"/>
<path d="M649 2585 c-36 -19 -39 -43 -39 -290 l0 -213 -104 -7 c-93 -6 -111
-10 -158 -38 -64 -39 -108 -100 -119 -164 -4 -26 -8 -128 -8 -225 l-1 -178 25
0 c43 0 87 25 159 88 100 90 141 107 251 107 108 0 142 -15 254 -111 125 -108
169 -107 289 1 97 87 139 107 234 113 102 6 159 -15 242 -88 102 -91 124 -104
176 -104 52 0 74 13 177 105 81 72 143 94 247 87 89 -6 132 -27 228 -113 122
-109 165 -109 294 1 115 98 141 109 254 109 110 0 143 -13 231 -93 78 -70 111
-90 158 -98 l41 -7 0 202 0 202 -30 59 c-50 99 -113 134 -262 145 l-98 7 0
239 0 239 -32 20 c-29 17 -51 20 -175 20 l-142 0 -20 -29 c-20 -27 -21 -43
-21 -260 l0 -231 -330 0 -330 0 0 238 c0 302 13 282 -183 282 -158 0 -183 -7
-197 -59 -5 -20 -10 -132 -10 -248 l0 -213 -325 0 -325 0 0 219 c0 234 -6 271
-46 290 -37 17 -272 14 -305 -4z"/>
<path d="M613 1423 c-12 -2 -59 -38 -104 -79 -92 -82 -158 -114 -239 -114
l-50 0 0 -460 0 -460 -47 0 c-69 0 -127 -32 -152 -84 -34 -69 -22 -135 34
-186 26 -25 29 -25 258 -31 128 -4 916 -6 1752 -5 1686 2 1556 -3 1606 67 74
104 -5 239 -140 239 l-51 0 0 460 0 460 -50 0 c-80 0 -146 31 -238 114 -126
113 -169 112 -294 -3 -90 -83 -152 -111 -248 -111 -96 0 -168 32 -262 118 -70
64 -119 85 -169 75 -17 -3 -65 -36 -108 -74 -113 -97 -161 -119 -258 -119
-100 0 -152 23 -255 114 -123 108 -172 108 -288 2 -101 -93 -143 -111 -260
-111 -114 0 -145 13 -248 107 -88 80 -121 94 -189 81z"/>
</g>
</svg>
