<?xml version="1.0" standalone="no"?>
<!DOCTYPE svg PUBLIC "-//W3C//DTD SVG 20010904//EN"
 "http://www.w3.org/TR/2001/REC-SVG-20010904/DTD/svg10.dtd">
<svg version="1.0" xmlns="http://www.w3.org/2000/svg"
 width="800.000000pt" height="800.000000pt" viewBox="0 0 800.000000 800.000000"
 preserveAspectRatio="xMidYMid meet">

<g transform="translate(0.000000,800.000000) scale(0.100000,-0.100000)"
fill="#000000" stroke="none">
<path d="M3768 6545 c-752 -103 -1356 -686 -1500 -1450 -19 -100 -22 -153 -22
-325 0 -183 3 -218 27 -331 32 -152 73 -277 136 -419 47 -106 253 -451 1003
-1685 47 -77 175 -288 285 -470 263 -436 249 -414 279 -421 61 -16 66 -9 308
391 126 209 393 652 594 985 560 928 596 988 649 1095 117 234 202 500 225
709 23 213 -9 489 -83 711 -270 816 -1068 1323 -1901 1210z m477 -489 c497
-109 865 -479 972 -978 25 -115 25 -361 0 -476 -108 -503 -477 -871 -980 -979
-113 -24 -361 -24 -474 0 -503 108 -872 476 -980 979 -25 115 -25 361 0 476
81 380 317 692 653 864 129 66 262 107 429 132 59 9 311 -3 380 -18z"/>
<path d="M4360 5543 c-63 -23 -152 -114 -173 -177 -9 -27 -17 -69 -17 -93 l0
-43 -50 0 c-59 0 -346 -62 -387 -84 -40 -21 -90 -75 -108 -118 -11 -27 -26
-42 -51 -53 -38 -16 -38 -16 -236 -187 -114 -99 -139 -126 -158 -170 -50 -117
2 -252 120 -314 57 -30 153 -26 214 9 41 23 51 25 58 13 25 -45 96 -121 136
-147 108 -68 224 -75 336 -20 84 41 122 84 290 326 167 239 181 271 174 397
l-5 78 36 10 c55 14 127 64 160 110 111 154 63 362 -104 447 -64 33 -169 40
-235 16z m-142 -512 c104 -61 132 -100 132 -185 0 -56 -13 -78 -173 -306 -143
-202 -183 -243 -254 -256 -46 -9 -106 10 -148 47 -18 16 -63 74 -100 127 -36
53 -72 106 -80 116 -14 19 -19 16 -94 -57 -49 -49 -87 -77 -101 -77 -30 0 -80
52 -80 84 0 14 10 36 23 49 42 47 289 257 301 257 7 0 45 -36 85 -80 40 -44
76 -80 81 -80 10 0 143 190 138 196 -3 2 -20 -1 -39 -6 -98 -28 -158 17 -136
101 9 35 35 47 178 79 171 38 187 38 267 -9z"/>
</g>
</svg>
