<?xml version="1.0" standalone="no"?>
<!DOCTYPE svg PUBLIC "-//W3C//DTD SVG 20010904//EN"
 "http://www.w3.org/TR/2001/REC-SVG-20010904/DTD/svg10.dtd">
<svg version="1.0" xmlns="http://www.w3.org/2000/svg"
 width="360.000000pt" height="360.000000pt" viewBox="0 0 360.000000 360.000000"
 preserveAspectRatio="xMidYMid meet">

<g transform="translate(0.000000,360.000000) scale(0.100000,-0.100000)"
fill="#000000" stroke="none">
<path d="M1643 3586 c-285 -55 -465 -203 -549 -451 -24 -72 -27 -100 -33 -272
-6 -178 -8 -194 -28 -215 -31 -32 -43 -70 -49 -152 -11 -136 43 -297 145 -429
30 -39 72 -112 96 -167 92 -214 233 -353 422 -416 68 -23 90 -26 173 -22 112
5 184 29 275 88 121 79 213 194 281 351 23 54 65 127 93 163 63 83 115 190
137 281 26 113 7 265 -39 304 -14 11 -17 33 -17 121 0 183 -34 326 -97 408
-14 19 -38 68 -54 109 -32 88 -64 132 -127 178 -53 38 -174 87 -272 110 -94
22 -270 27 -357 11z"/>
<path d="M975 1534 c-391 -165 -538 -246 -644 -354 -176 -178 -301 -487 -327
-806 -6 -70 -4 -82 14 -105 32 -39 227 -105 457 -153 725 -151 1920 -151 2654
0 140 29 380 104 428 133 42 27 48 53 35 170 -25 217 -109 461 -213 622 -127
194 -247 276 -662 453 -183 79 -304 124 -309 116 -2 -3 -21 -75 -42 -160 -44
-179 -147 -502 -212 -663 -50 -124 -240 -503 -294 -584 -19 -29 -41 -55 -49
-58 -30 -12 -63 34 -172 237 -197 368 -296 640 -439 1196 -6 23 -14 42 -18 41
-4 0 -97 -38 -207 -85z"/>
<path d="M1710 1243 c-36 -2 -69 -8 -73 -12 -12 -12 32 -239 50 -256 20 -21
205 -21 226 -1 18 18 63 244 51 255 -11 11 -166 19 -254 14z"/>
<path d="M1681 877 c-5 -13 -20 -73 -32 -134 l-23 -110 67 -134 c37 -74 77
-145 87 -159 20 -25 20 -25 36 -5 9 11 48 83 86 160 l71 140 -22 109 c-35 170
-22 156 -151 156 -106 0 -111 -1 -119 -23z"/>
</g>
</svg>
