<?xml version="1.0" standalone="no"?>
<!DOCTYPE svg PUBLIC "-//W3C//DTD SVG 20010904//EN"
 "http://www.w3.org/TR/2001/REC-SVG-20010904/DTD/svg10.dtd">
<svg version="1.0" xmlns="http://www.w3.org/2000/svg"
 width="360.000000pt" height="361.000000pt" viewBox="0 0 360.000000 361.000000"
 preserveAspectRatio="xMidYMid meet">

<g transform="translate(0.000000,361.000000) scale(0.100000,-0.100000)"
fill="#000000" stroke="none">
<path d="M1590 3595 c-291 -39 -560 -140 -803 -301 -114 -76 -319 -270 -412
-389 -178 -228 -303 -516 -351 -804 -33 -195 -28 -474 11 -664 41 -199 163
-484 277 -649 283 -408 713 -682 1203 -764 149 -25 442 -23 599 5 228 41 494
148 691 279 432 288 731 784 785 1302 56 542 -122 1058 -499 1444 -195 199
-373 320 -619 421 -265 108 -614 156 -882 120z m319 -365 c360 -32 646 -164
896 -415 208 -207 335 -441 397 -728 31 -146 31 -418 0 -564 -64 -298 -202
-546 -419 -753 -200 -192 -429 -311 -713 -371 -82 -17 -140 -22 -265 -22 -249
-1 -424 40 -650 153 -333 166 -591 465 -710 823 -58 176 -70 251 -69 452 0
146 4 199 22 282 63 290 183 513 391 721 246 247 542 390 876 421 128 12 119
12 244 1z"/>
<path d="M1692 2902 c-20 -14 -32 -71 -32 -154 l0 -77 -119 -61 c-186 -95
-253 -175 -288 -346 -13 -66 -14 -91 -4 -154 29 -191 154 -307 466 -435 194
-79 265 -141 265 -230 0 -49 -23 -90 -71 -125 -100 -72 -282 -63 -496 26 -45
18 -89 31 -98 28 -16 -7 -72 -170 -82 -239 -5 -39 -3 -44 28 -68 44 -32 152
-71 263 -93 48 -9 93 -23 100 -30 8 -8 16 -54 20 -113 10 -129 12 -131 152
-131 80 0 104 3 115 16 7 9 16 62 20 131 5 64 12 119 16 124 4 4 43 21 85 39
98 40 156 79 215 144 134 147 161 353 68 535 -34 68 -127 165 -196 206 -32 18
-124 63 -206 100 -178 79 -236 116 -265 171 -19 37 -21 46 -10 82 14 47 57 87
110 102 92 25 263 5 381 -45 71 -29 84 -28 104 12 25 49 68 214 61 235 -8 28
-111 74 -215 97 -135 29 -132 26 -143 170 -2 35 -9 68 -16 75 -13 13 -209 21
-228 8z"/>
</g>
</svg>
