<?xml version="1.0" standalone="no"?>
<!DOCTYPE svg PUBLIC "-//W3C//DTD SVG 20010904//EN"
 "http://www.w3.org/TR/2001/REC-SVG-20010904/DTD/svg10.dtd">
<svg version="1.0" xmlns="http://www.w3.org/2000/svg"
 width="280.000000pt" height="280.000000pt" viewBox="0 0 280.000000 280.000000"
 preserveAspectRatio="xMidYMid meet">

<g transform="translate(0.000000,280.000000) scale(0.100000,-0.100000)"
fill="#000000" stroke="none">
<path d="M1205 2686 c-301 -51 -540 -177 -747 -395 -173 -182 -281 -387 -335
-641 -25 -119 -25 -381 0 -500 54 -254 162 -459 335 -641 191 -201 417 -327
692 -386 119 -25 381 -25 500 0 465 99 838 429 984 867 48 144 61 233 61 410
0 177 -13 266 -61 410 -144 434 -518 766 -974 865 -103 22 -353 28 -455 11z
m390 -138 c357 -54 698 -313 859 -653 74 -154 108 -311 108 -495 0 -241 -60
-442 -190 -640 -58 -88 -145 -187 -150 -171 -2 7 -34 11 -88 11 l-84 0 0 754
0 754 -119 101 c-66 56 -126 101 -134 101 -11 0 -698 -244 -789 -281 -23 -9
-28 -18 -28 -45 0 -19 4 -34 8 -34 4 0 167 52 361 115 194 63 360 115 367 115
12 0 14 -133 14 -845 l0 -845 198 0 197 -1 -29 -23 c-49 -41 -179 -114 -257
-145 -395 -158 -852 -90 -1175 177 l-64 52 0 543 0 542 298 94 c163 52 303 97
310 99 9 3 12 -134 12 -667 l0 -671 160 0 160 0 -2 682 -3 682 -108 64 -107
65 -415 -144 -414 -144 -3 -510 -3 -510 -53 79 c-134 201 -194 403 -194 646 0
139 11 214 49 340 99 329 357 612 675 739 203 81 407 103 633 69z"/>
<path d="M905 1595 l-190 -61 -3 -79 c-2 -43 1 -82 6 -87 5 -5 89 13 196 42
103 27 189 50 192 50 7 0 4 189 -3 193 -5 2 -93 -24 -198 -58z"/>
<path d="M910 1283 c-96 -25 -181 -50 -187 -55 -8 -7 -13 -37 -13 -84 0 -70 1
-74 23 -74 12 0 101 16 197 35 96 19 176 35 178 35 1 0 2 43 2 95 0 70 -3 95
-12 94 -7 0 -92 -21 -188 -46z"/>
<path d="M895 971 c-88 -14 -166 -30 -172 -34 -9 -6 -13 -34 -13 -84 l0 -75
93 7 c50 4 139 12 197 18 l105 12 3 93 3 92 -28 -1 c-15 0 -100 -13 -188 -28z"/>
<path d="M891 675 c-89 -7 -167 -17 -172 -22 -6 -6 -9 -43 -7 -84 l3 -74 198
-3 198 -2 -3 97 c-4 116 20 107 -217 88z"/>
</g>
</svg>
