<?xml version="1.0" standalone="no"?>
<!DOCTYPE svg PUBLIC "-//W3C//DTD SVG 20010904//EN"
 "http://www.w3.org/TR/2001/REC-SVG-20010904/DTD/svg10.dtd">
<svg version="1.0" xmlns="http://www.w3.org/2000/svg"
 width="360.000000pt" height="360.000000pt" viewBox="0 0 360.000000 360.000000"
 preserveAspectRatio="xMidYMid meet">

<g transform="translate(0.000000,360.000000) scale(0.100000,-0.100000)"
fill="#000000" stroke="none">
<path d="M902 3581 c-18 -12 -41 -35 -52 -53 -18 -31 -20 -51 -20 -271 0 -256
2 -268 55 -317 22 -21 37 -25 85 -25 48 0 63 4 85 25 51 47 55 70 55 317 0
197 -2 233 -18 262 -36 72 -126 101 -190 62z"/>
<path d="M2571 3582 c-19 -9 -44 -30 -55 -45 -20 -26 -21 -44 -24 -260 -2
-142 1 -246 7 -267 34 -117 190 -136 250 -30 20 36 21 51 21 276 0 221 -2 241
-20 272 -41 66 -113 88 -179 54z"/>
<path d="M282 3300 c-71 -25 -108 -50 -164 -107 -53 -55 -93 -128 -108 -199
-7 -33 -10 -478 -8 -1364 l3 -1315 32 -67 c56 -119 154 -201 277 -234 76 -20
2896 -20 2972 0 149 40 260 151 300 301 11 41 14 296 14 1345 0 837 -4 1311
-11 1339 -27 118 -124 237 -236 289 -55 25 -66 27 -249 30 l-192 4 -4 -174
c-3 -164 -5 -176 -30 -224 -108 -207 -393 -204 -495 4 -27 54 -28 65 -32 225
l-3 167 -548 0 -548 0 -3 -167 c-4 -160 -5 -171 -32 -225 -86 -176 -305 -212
-442 -74 -73 73 -85 119 -85 312 l0 154 -177 0 c-149 -1 -187 -4 -231 -20z
m3038 -1935 c0 -1088 4 -1025 -63 -1065 -31 -20 -61 -20 -1457 -20 -1396 0
-1426 0 -1457 20 -67 40 -63 -23 -63 1065 l0 985 1520 0 1520 0 0 -985z"/>
<path d="M2374 2070 c-12 -5 -133 -173 -284 -397 -145 -213 -301 -444 -348
-511 l-85 -124 -166 166 c-157 156 -170 166 -205 166 -34 0 -47 -8 -117 -76
-85 -83 -100 -115 -75 -161 8 -15 128 -141 268 -279 210 -209 260 -254 295
-264 48 -15 86 -4 121 33 12 12 208 298 436 636 298 440 416 622 416 641 0 37
-20 58 -118 124 -84 57 -100 62 -138 46z"/>
</g>
</svg>
