<svg version="1.0" xmlns="http://www.w3.org/2000/svg"
 width="350.000000pt" height="350.000000pt" viewBox="0 0 350.000000 350.000000"
 preserveAspectRatio="xMidYMid meet">

<g transform="translate(0.000000,350.000000) scale(0.100000,-0.100000)"
fill="#FF0000" stroke="none">
<path d="M1685 2926 c-16 -8 -46 -31 -66 -52 -39 -42 -1206 -1925 -1245 -2009
-49 -105 -38 -193 32 -254 72 -64 16 -61 1344 -61 1349 0 1279 -4 1351 69 69
69 73 163 11 276 -81 146 -1200 1946 -1231 1979 -59 63 -129 82 -196 52z m123
-756 c18 -11 37 -32 42 -46 6 -15 10 -172 10 -375 0 -293 -2 -355 -15 -379
-17 -33 -61 -60 -97 -60 -33 0 -87 36 -98 66 -13 34 -13 714 0 748 11 31 65
66 100 66 14 0 40 -9 58 -20z m2 -1093 c71 -55 63 -154 -14 -191 -42 -20 -50
-20 -92 0 -75 36 -86 133 -20 186 25 21 103 24 126 5z"/>
</g>
</svg>
