<svg version="1.0" xmlns="http://www.w3.org/2000/svg"
 width="920.000000pt" height="823.000000pt" viewBox="0 0 920.000000 823.000000"
 preserveAspectRatio="xMidYMid meet">

<g transform="translate(0.000000,823.000000) scale(0.100000,-0.100000)"
fill="#FF0000" stroke="none">
<path d="M4438 8174 c-94 -17 -218 -61 -306 -110 -211 -116 -449 -352 -614
-609 -25 -38 -247 -430 -493 -870 -246 -440 -532 -951 -635 -1135 -701 -1253
-1039 -1858 -1368 -2445 -206 -368 -458 -818 -560 -1000 -230 -411 -263 -476
-312 -623 -50 -151 -71 -269 -71 -412 -1 -135 12 -214 51 -321 57 -158 172
-309 305 -405 135 -96 337 -171 525 -194 118 -14 7162 -14 7280 0 188 23 390
98 525 194 133 96 248 247 305 405 39 107 52 186 51 321 0 143 -21 261 -71
412 -46 138 -87 222 -243 499 -63 112 -316 564 -562 1004 -419 749 -1038 1855
-1410 2520 -89 160 -375 670 -635 1135 -485 867 -523 931 -619 1060 -77 103
-251 281 -341 350 -259 197 -531 273 -802 224z m639 -2386 c-3 -68 -29 -735
-57 -1483 -28 -748 -53 -1375 -56 -1392 l-5 -33 -329 0 -329 0 -5 33 c-3 17
-28 644 -56 1392 -28 748 -54 1415 -57 1483 l-6 122 453 0 453 0 -6 -122z
m-276 -3336 c216 -57 349 -244 349 -492 0 -151 -50 -280 -146 -375 -97 -97
-203 -135 -374 -135 -171 0 -266 35 -368 136 -71 71 -114 153 -137 260 -19 87
-19 133 0 228 36 191 171 336 353 380 81 20 242 19 323 -2z"/>
</g>
</svg>
