<svg version="1.0" xmlns="http://www.w3.org/2000/svg"
 width="600.000000pt" height="600.000000pt" viewBox="0 0 600.000000 600.000000"
 preserveAspectRatio="xMidYMid meet">

<g transform="translate(0.000000,600.000000) scale(0.100000,-0.100000)"
fill="#6e6e6e" stroke="none">
<path d="M2820 5664 c-177 -12 -351 -43 -550 -99 -336 -93 -677 -283 -967
-537 -319 -280 -544 -601 -703 -1003 -69 -175 -79 -207 -106 -345 -31 -156
-41 -266 -54 -550 -9 -205 -8 -239 10 -380 75 -569 350 -1110 771 -1516 155
-149 327 -270 589 -414 63 -35 117 -65 119 -66 2 -2 -6 -56 -18 -122 -11 -65
-21 -121 -21 -124 0 -14 174 -100 260 -128 101 -33 279 -60 396 -60 103 0 250
32 363 79 52 21 100 37 108 34 8 -3 13 -21 13 -44 0 -29 5 -42 23 -53 70 -44
175 -25 413 75 112 47 225 79 279 79 22 0 54 -9 73 -20 18 -11 37 -18 41 -16
4 3 11 51 15 108 4 71 11 107 22 119 9 10 52 32 97 50 212 84 456 223 597 339
446 369 740 816 891 1355 121 433 110 1040 -28 1445 -111 328 -237 568 -430
819 -91 118 -326 350 -450 444 -377 286 -744 442 -1211 512 -100 15 -432 27
-542 19z m42 -217 c9 -7 21 -33 28 -57 7 -24 18 -53 26 -64 8 -11 14 -29 14
-38 0 -18 3 -26 34 -86 21 -39 15 -62 -16 -62 -29 0 -42 9 -57 38 -10 19 -20
22 -70 22 -56 0 -59 -1 -66 -27 -9 -36 -23 -53 -45 -53 -34 0 -33 48 5 155 19
55 35 110 35 123 0 49 70 80 112 49z m427 -4 l54 -6 -8 -91 c-19 -227 -17
-221 -47 -224 -24 -3 -28 1 -34 33 -3 20 -4 76 -2 125 4 83 3 89 -16 94 -12 3
-23 6 -26 6 -3 0 -14 -26 -24 -57 -31 -101 -66 -163 -102 -181 -27 -12 -36
-13 -49 -2 -23 19 -18 44 13 67 31 23 82 145 82 195 0 41 26 61 69 54 20 -4
60 -10 90 -13z m-752 -25 c4 -7 18 -62 30 -121 12 -60 28 -124 34 -142 15 -40
-1 -68 -35 -63 -16 2 -26 17 -39 59 l-18 56 -57 -11 c-31 -7 -56 -14 -56 -16
27 -110 24 -140 -16 -140 -27 0 -35 17 -64 147 -32 144 -32 178 3 178 28 0 37
-15 46 -69 l6 -39 56 7 c31 4 59 8 62 11 4 2 3 31 -3 64 -7 46 -7 63 3 75 16
19 37 21 48 4z m1136 -43 c18 -8 44 -33 58 -55 22 -36 25 -47 18 -98 -14 -117
-60 -172 -146 -172 -55 0 -91 14 -130 53 -30 28 -33 37 -33 88 0 69 12 104 48
143 51 54 124 70 185 41z m344 -136 c60 -34 72 -51 53 -74 -18 -21 -53 -19
-84 6 -21 17 -29 19 -41 9 -8 -7 -15 -16 -15 -21 0 -4 -20 -51 -45 -104 -44
-94 -60 -110 -85 -80 -10 12 -8 25 13 67 84 176 97 204 97 215 0 23 51 14 107
-18z m-2169 -122 c12 -18 22 -36 22 -40 0 -7 51 -98 82 -145 30 -45 31 -53 15
-69 -24 -24 -58 -9 -92 41 -23 36 -32 43 -43 33 -14 -11 -13 -48 3 -123 5 -22
2 -36 -10 -48 -23 -23 -49 -16 -53 14 -2 14 -7 30 -12 35 -4 6 -11 28 -15 50
-6 34 -12 43 -48 60 -81 39 -73 117 17 185 66 50 103 52 134 7z m2427 -26 c48
-22 90 -66 99 -104 14 -60 -46 -167 -115 -202 -79 -41 -192 16 -218 111 -8 29
-5 42 19 86 36 67 79 108 122 118 48 11 49 11 93 -9z m-995 -106 c216 -35 380
-88 575 -186 436 -219 753 -573 935 -1043 17 -43 35 -95 40 -115 4 -20 17 -72
28 -116 58 -233 62 -556 12 -808 -21 -101 -26 -120 -54 -207 -133 -411 -404
-768 -759 -1002 l-72 -47 -12 -83 c-7 -46 -17 -114 -22 -153 -5 -38 -14 -71
-20 -73 -6 -2 -11 -25 -11 -50 0 -26 -5 -54 -10 -62 -8 -11 -10 3 -9 49 3 71
-2 77 -71 76 -32 0 -35 -2 -32 -27 2 -16 -1 -28 -8 -28 -6 0 -10 10 -8 23 3
19 -1 22 -32 21 -19 -1 -60 -11 -90 -23 -30 -11 -61 -21 -69 -21 -8 0 -22 -7
-30 -14 -22 -20 -43 -6 -44 30 -2 35 -32 68 -54 60 -9 -4 -22 -1 -30 6 -12 10
-18 9 -28 -5 -12 -16 -13 -16 -27 4 -13 21 -15 21 -45 5 -21 -10 -34 -12 -38
-5 -5 7 -11 7 -19 -1 -7 -5 -26 -7 -43 -4 -17 3 -45 -1 -66 -10 -21 -8 -43
-13 -50 -11 -14 5 -41 -14 -50 -35 -4 -12 -6 -11 -6 3 -1 19 -26 23 -36 6 -4
-6 -14 -8 -22 -4 -9 3 -24 -2 -34 -11 -10 -9 -25 -14 -33 -11 -8 3 -22 -1 -33
-8 -10 -8 -27 -15 -39 -15 -11 0 -25 -5 -32 -12 -6 -6 -20 -13 -29 -14 -41 -6
-137 -34 -142 -41 -3 -4 -33 -9 -66 -11 -33 -2 -63 -9 -67 -15 -6 -9 -8 -9 -8
1 0 17 -35 15 -51 -4 -11 -14 -14 -14 -23 -1 -7 8 -49 19 -111 27 -55 7 -109
19 -120 26 -11 8 -27 14 -36 14 -9 0 -22 7 -29 15 -7 9 -20 14 -29 13 -9 -2
-27 7 -41 19 l-25 23 -6 -22 c-3 -13 -3 -30 2 -38 4 -8 1 -19 -9 -26 -17 -12
-26 -130 -10 -140 4 -3 8 -13 8 -22 0 -13 -5 -12 -21 8 -17 22 -19 34 -13 100
3 41 9 80 13 85 5 6 9 41 9 78 1 38 4 72 7 77 3 5 10 39 15 77 5 37 12 80 16
95 5 23 2 30 -17 38 -22 10 -58 32 -135 85 -145 98 -330 277 -447 431 -42 56
-77 105 -77 108 0 3 -15 29 -34 58 -51 81 -144 286 -175 388 -69 226 -84 330
-84 585 0 273 24 416 114 670 26 75 120 268 154 318 14 21 25 40 25 42 0 7 68
103 114 160 58 72 261 272 331 326 239 184 581 330 864 370 35 5 66 11 69 14
12 11 430 4 512 -10z m-1707 -174 c67 -39 130 -73 140 -76 9 -4 17 -17 17 -31
0 -31 -37 -41 -77 -20 -29 14 -31 14 -74 -22 -43 -36 -44 -38 -35 -74 7 -29 6
-40 -8 -53 -26 -27 -39 -8 -102 151 l-57 144 23 25 c13 14 30 25 38 25 7 0 69
-31 135 -69z m3005 54 c34 -17 82 -91 82 -126 0 -30 -38 -69 -66 -69 -20 0
-23 -5 -21 -40 2 -50 -32 -90 -77 -90 -47 0 -174 92 -164 120 6 20 191 220
203 220 7 0 26 -7 43 -15z m-3287 -262 c36 -32 90 -78 119 -103 48 -41 52 -47
41 -68 -17 -31 -36 -28 -90 17 l-46 38 -21 -21 c-12 -12 -28 -34 -37 -50 -15
-30 -14 -30 35 -69 47 -38 48 -40 32 -58 -28 -31 -55 -23 -141 41 -120 88
-165 158 -112 175 15 5 30 -1 52 -22 18 -15 33 -31 35 -35 8 -16 30 -7 48 19
9 15 27 36 38 45 21 18 21 18 -26 61 -45 40 -57 64 -41 80 18 18 55 2 114 -50z
m3589 -67 c17 -34 23 -23 -134 -263 -11 -18 -29 -33 -38 -33 -24 0 -33 38 -14
59 24 26 19 52 -19 94 -32 37 -35 38 -79 32 -38 -6 -47 -4 -53 10 -9 25 14 39
111 70 44 14 95 32 111 40 17 7 46 14 66 14 28 1 38 -4 49 -23z m187 -293 c33
-39 66 -108 61 -124 -4 -12 -81 -57 -216 -126 -50 -26 -53 -26 -70 -9 -16 16
-16 18 11 42 15 13 34 24 41 24 8 0 19 7 26 15 10 12 9 20 -5 41 -16 25 -20
26 -80 21 -65 -6 -85 2 -85 34 0 22 20 29 93 30 51 1 57 4 57 23 0 45 38 68
100 62 34 -3 50 -11 67 -33z m-3907 2 c39 -20 63 -68 55 -107 -9 -39 -55 -118
-78 -132 -13 -9 -25 -7 -50 8 -17 11 -75 43 -127 71 -77 42 -96 57 -98 77 -4
36 21 42 70 17 43 -22 43 -22 69 24 15 26 70 57 102 57 15 0 41 -7 57 -15z
m-282 -274 c26 -11 83 -33 127 -49 81 -31 98 -49 75 -77 -16 -20 -53 -19 -92
1 -17 9 -62 29 -100 44 -65 27 -69 27 -78 10 -19 -35 -10 -47 57 -86 120 -70
159 -121 137 -178 -11 -28 -44 -19 -59 17 -14 33 -46 58 -172 137 -34 21 -53
39 -53 51 0 11 13 49 29 84 34 74 48 79 129 46z m4422 -396 c62 -61 73 -153
20 -170 -30 -10 -43 3 -36 39 15 77 -34 124 -114 111 -85 -14 -131 -94 -80
-140 35 -32 20 -62 -24 -51 -27 7 -56 68 -56 117 0 86 88 144 204 134 40 -4
57 -11 86 -40z m-4310 -14 c0 -23 -36 -51 -66 -51 -18 0 -22 -9 -31 -67 -6
-38 -7 -69 -2 -71 27 -11 59 -47 59 -67 0 -37 -29 -39 -84 -4 -28 18 -67 41
-86 52 -137 78 -170 120 -137 170 12 19 30 25 108 36 52 7 99 14 104 16 6 2
38 4 73 4 55 1 62 -1 62 -18z m4133 -288 c30 -21 64 -31 140 -43 116 -18 113
-15 116 -132 1 -77 -4 -79 -181 -76 -140 3 -143 4 -146 26 -2 13 2 22 10 22
75 2 253 21 261 29 5 5 7 20 4 33 -6 21 -16 26 -84 37 -116 20 -178 46 -193
81 -23 55 11 66 73 23z m-4353 -16 c32 -25 50 -62 50 -104 0 -41 1 -43 29 -43
16 0 42 -5 56 -10 21 -8 26 -16 23 -38 l-3 -27 -150 3 c-179 4 -178 4 -173
104 4 69 21 101 63 119 30 12 88 10 105 -4z m184 -333 c3 -9 6 -36 6 -60 0
-24 6 -53 12 -64 18 -29 -1 -54 -43 -58 -19 -1 -64 -9 -101 -17 -96 -21 -185
-20 -196 3 -17 34 -35 131 -28 156 17 67 69 32 80 -53 6 -49 8 -51 37 -51 l30
0 -6 53 c-5 42 -3 56 9 66 22 18 55 4 62 -27 12 -56 23 -72 50 -72 26 0 26 0
19 59 -4 33 -4 65 0 70 10 17 62 13 69 -5z m4156 -42 c0 -10 -5 -23 -12 -30
-9 -9 -9 -15 1 -24 10 -11 33 -5 119 26 149 53 152 54 152 23 0 -31 -8 -37
-99 -72 -83 -31 -84 -26 19 -84 47 -27 60 -40 60 -58 0 -13 -7 -26 -15 -30
-34 -12 -275 140 -294 186 -18 43 0 81 39 81 22 0 30 -5 30 -18z m-4042 -224
c3 -22 -2 -28 -32 -39 -20 -7 -36 -16 -36 -19 0 -4 8 -31 19 -61 10 -30 21
-71 25 -91 4 -21 8 -38 10 -38 2 0 17 5 35 11 38 13 61 -1 61 -37 0 -18 -7
-25 -27 -30 -16 -3 -41 -10 -58 -15 -24 -8 -35 -6 -59 12 -27 20 -35 21 -125
13 -174 -14 -160 -18 -182 51 -32 103 -30 116 16 139 22 11 74 31 115 45 41
14 75 31 75 38 0 19 14 28 68 40 75 16 91 13 95 -19z m4065 -144 c6 -10 14
-11 33 -4 28 11 104 13 128 4 9 -3 16 -14 16 -25 0 -29 -39 -49 -97 -49 -28 0
-54 -4 -57 -9 -13 -20 8 -41 51 -53 56 -16 75 -40 51 -65 -15 -14 -24 -15 -68
-5 -69 16 -70 16 -70 -13 0 -18 11 -32 40 -50 49 -31 69 -67 50 -90 -7 -8 -19
-15 -27 -15 -19 0 -102 70 -109 93 -4 13 -11 16 -27 11 -12 -4 -48 -10 -82
-14 -66 -9 -88 3 -78 41 7 25 41 39 97 39 42 0 66 13 66 37 0 7 -7 13 -15 13
-8 0 -33 7 -55 16 -31 13 -40 21 -40 40 0 34 18 38 86 20 32 -8 60 -13 62 -11
13 13 -14 54 -53 83 -49 35 -58 67 -29 96 14 15 20 12 67 -30 29 -25 56 -52
60 -60z m-4032 -251 c5 -16 21 -50 35 -77 13 -28 24 -53 24 -57 0 -9 -241
-126 -276 -135 -18 -5 -27 2 -47 33 -14 21 -31 55 -38 75 -11 33 -11 40 6 58
22 25 34 25 41 3 18 -55 40 -103 47 -103 14 0 67 30 67 38 0 4 -6 17 -14 28
-18 25 -23 55 -13 72 15 24 37 12 59 -32 l21 -44 33 16 c28 13 32 18 22 35 -5
11 -14 33 -19 50 -16 57 31 94 52 40z m3844 -158 c113 -59 175 -102 175 -122
0 -28 -92 -153 -112 -153 -30 0 -33 29 -7 79 13 25 25 49 27 52 1 3 -9 14 -24
24 -27 17 -28 17 -48 -11 -58 -80 -109 -95 -165 -48 -43 36 -41 77 6 159 21
36 43 65 49 65 6 0 51 -20 99 -45z m-3730 -175 c20 -19 26 -20 44 -8 42 26 79
-25 45 -63 -14 -16 -15 -23 -6 -45 38 -83 -18 -159 -115 -158 -43 0 -58 5 -80
26 -25 24 -30 25 -47 12 -35 -25 -60 14 -34 55 9 15 9 25 0 46 -29 64 -3 123
68 157 28 14 100 1 125 -22z m3519 -63 c11 -18 47 -77 82 -133 35 -55 64 -105
64 -111 0 -5 -11 -20 -24 -32 l-24 -23 -156 53 c-86 29 -156 56 -156 61 0 5 5
18 11 29 9 17 17 19 47 14 34 -5 41 -2 76 34 39 40 39 41 26 80 -10 32 -10 43
-1 55 17 20 33 12 55 -27z m-1534 -718 c0 -5 -4 -9 -10 -9 -5 0 -10 7 -10 16
0 8 5 12 10 9 6 -3 10 -10 10 -16z m80 -7 c0 -5 -7 -17 -16 -28 -14 -17 -15
-17 -10 -1 3 10 6 23 6 28 0 5 5 9 10 9 6 0 10 -4 10 -8z m60 -7 c0 -8 -4 -15
-10 -15 -5 0 -10 7 -10 15 0 8 5 15 10 15 6 0 10 -7 10 -15z m137 -25 c-4 -17
-2 -30 3 -30 6 0 10 -9 10 -20 0 -11 -4 -20 -10 -20 -5 0 -10 9 -10 20 0 11
-5 20 -11 20 -6 0 -7 5 -2 13 4 6 6 20 5 30 -2 9 2 17 9 17 7 0 9 -10 6 -30z
m-270 -2 c-3 -8 -6 -5 -6 6 -1 11 2 17 5 13 3 -3 4 -12 1 -19z m203 -4 c0 -8
-4 -12 -10 -9 -5 3 -10 10 -10 16 0 5 5 9 10 9 6 0 10 -7 10 -16z m272 -34 c2
-26 -1 -40 -8 -40 -10 0 -12 27 -5 73 3 19 9 3 13 -33z m-392 5 c0 -8 -4 -15
-10 -15 -5 0 -10 7 -10 15 0 8 5 15 10 15 6 0 10 -7 10 -15z m320 5 c0 -5 -4
-10 -10 -10 -5 0 -10 5 -10 10 0 6 5 10 10 10 6 0 10 -4 10 -10z m187 -12 c-3
-8 -6 -5 -6 6 -1 11 2 17 5 13 3 -3 4 -12 1 -19z m-767 -3 c0 -8 -4 -15 -10
-15 -5 0 -10 7 -10 15 0 8 5 15 10 15 6 0 10 -7 10 -15z m720 -11 c0 -8 -4
-12 -10 -9 -5 3 -10 10 -10 16 0 5 5 9 10 9 6 0 10 -7 10 -16z m-840 2 c0 -11
-19 -15 -25 -6 -3 5 1 10 9 10 9 0 16 -2 16 -4z m260 -17 c0 -6 -4 -7 -10 -4
-5 3 -10 11 -10 16 0 6 5 7 10 4 6 -3 10 -11 10 -16z m264 -18 c-9 -10 -26 18
-18 30 5 9 9 8 14 -7 4 -10 6 -21 4 -23z m-64 8 c0 -5 -4 -9 -10 -9 -5 0 -10
7 -10 16 0 8 5 12 10 9 6 -3 10 -10 10 -16z m186 -6 c-10 -10 -19 5 -10 18 6
11 8 11 12 0 2 -7 1 -15 -2 -18z m74 12 c0 -8 -4 -15 -10 -15 -5 0 -10 7 -10
15 0 8 5 15 10 15 6 0 10 -7 10 -15z m-1440 -5 c0 -5 -4 -10 -10 -10 -5 0 -10
5 -10 10 0 6 5 10 10 10 6 0 10 -4 10 -10z m847 -22 c-3 -8 -6 -5 -6 6 -1 11
2 17 5 13 3 -3 4 -12 1 -19z m793 7 c0 -8 -4 -15 -10 -15 -5 0 -10 7 -10 15 0
8 5 15 10 15 6 0 10 -7 10 -15z m-976 -17 c10 -39 7 -44 -9 -14 -17 33 -18 36
-6 36 5 0 11 -10 15 -22z m389 -3 c-7 -21 -13 -19 -13 6 0 11 4 18 10 14 5 -3
7 -12 3 -20z m467 -1 c0 -8 -4 -14 -10 -14 -5 0 -10 9 -10 21 0 11 5 17 10 14
6 -3 10 -13 10 -21z m190 -23 c0 -28 -4 -53 -10 -56 -6 -4 -10 15 -10 49 0 31
5 56 10 56 6 0 10 -22 10 -49z m-1690 19 c0 -11 -4 -20 -10 -20 -5 0 -10 9
-10 20 0 11 5 20 10 20 6 0 10 -9 10 -20z m784 -12 c6 -28 2 -48 -8 -37 -8 10
-15 69 -7 69 5 0 11 -14 15 -32z m637 -11 c-8 -8 -11 -5 -11 9 0 27 14 41 18
19 2 -9 -1 -22 -7 -28z m-1361 12 c0 -5 -4 -9 -10 -9 -5 0 -10 7 -10 16 0 8 5
12 10 9 6 -3 10 -10 10 -16z m647 -1 c-3 -8 -6 -5 -6 6 -1 11 2 17 5 13 3 -3
4 -12 1 -19z m264 -1 c-13 -13 -26 -3 -16 12 3 6 11 8 17 5 6 -4 6 -10 -1 -17z
m259 2 c0 -11 -4 -17 -10 -14 -5 3 -10 13 -10 21 0 8 5 14 10 14 6 0 10 -9 10
-21z m70 12 c0 -6 -4 -13 -10 -16 -5 -3 -10 1 -10 9 0 9 5 16 10 16 6 0 10 -4
10 -9z m-133 -23 c-3 -8 -6 -5 -6 6 -1 11 2 17 5 13 3 -3 4 -12 1 -19z m-772
-18 c-5 -8 -11 -8 -17 -2 -6 6 -7 16 -3 22 5 8 11 8 17 2 6 -6 7 -16 3 -22z
m191 3 c-10 -10 -19 5 -10 18 6 11 8 11 12 0 2 -7 1 -15 -2 -18z m781 5 c-3
-8 -6 -5 -6 6 -1 11 2 17 5 13 3 -3 4 -12 1 -19z m-842 2 c3 -5 2 -10 -4 -10
-5 0 -13 5 -16 10 -3 6 -2 10 4 10 5 0 13 -4 16 -10z m1042 -12 c-3 -8 -6 -5
-6 6 -1 11 2 17 5 13 3 -3 4 -12 1 -19z m-708 -43 c-1 -29 -1 -29 -9 -5 -4 14
-8 34 -9 45 -1 16 1 17 9 5 5 -8 9 -28 9 -45z m195 23 c-9 -14 -23 2 -17 18 4
12 8 13 14 3 4 -7 5 -17 3 -21z m252 -5 c-11 -11 -19 6 -11 24 8 17 8 17 12 0
3 -10 2 -21 -1 -24z m-1296 6 c0 -11 -4 -17 -10 -14 -5 3 -10 13 -10 21 0 8 5
14 10 14 6 0 10 -9 10 -21z m70 0 c0 -5 -4 -9 -10 -9 -5 0 -10 7 -10 16 0 8 5
12 10 9 6 -3 10 -10 10 -16z m134 12 c3 -5 -1 -14 -9 -21 -13 -10 -15 -9 -15
9 0 21 14 28 24 12z m57 -14 c-13 -13 -26 -3 -16 12 3 6 11 8 17 5 6 -4 6 -10
-1 -17z m456 1 c-3 -8 -6 -5 -6 6 -1 11 2 17 5 13 3 -3 4 -12 1 -19z m263 13
c0 -6 -4 -13 -10 -16 -5 -3 -10 1 -10 9 0 9 5 16 10 16 6 0 10 -4 10 -9z m260
-17 c0 -8 -4 -12 -10 -9 -5 3 -10 13 -10 21 0 8 5 12 10 9 6 -3 10 -13 10 -21z
m200 11 c0 -8 -4 -15 -10 -15 -5 0 -10 7 -10 15 0 8 5 15 10 15 6 0 10 -7 10
-15z m-1500 -21 c0 -14 -4 -23 -10 -19 -5 3 -10 15 -10 26 0 10 5 19 10 19 6
0 10 -12 10 -26z m520 6 c0 -11 -4 -20 -10 -20 -5 0 -10 9 -10 20 0 11 5 20
10 20 6 0 10 -9 10 -20z m730 11 c0 -6 -4 -13 -10 -16 -5 -3 -10 1 -10 9 0 9
5 16 10 16 6 0 10 -4 10 -9z m190 -1 c0 -5 -4 -10 -10 -10 -5 0 -10 5 -10 10
0 6 5 10 10 10 6 0 10 -4 10 -10z m-1243 -22 c-3 -8 -6 -5 -6 6 -1 11 2 17 5
13 3 -3 4 -12 1 -19z m515 -10 c-9 -9 -12 -7 -12 12 0 19 3 21 12 12 9 -9 9
-15 0 -24z m983 4 c-8 -8 -25 10 -19 20 4 6 9 5 15 -3 4 -7 6 -15 4 -17z
m-1035 2 c0 -8 -4 -12 -10 -9 -5 3 -10 10 -10 16 0 5 5 9 10 9 6 0 10 -7 10
-16z m-534 -31 c-11 -11 -19 6 -11 24 8 17 8 17 12 0 3 -10 2 -21 -1 -24z
m268 22 c-4 -8 -8 -15 -10 -15 -2 0 -4 7 -4 15 0 8 4 15 10 15 5 0 7 -7 4 -15z
m1046 -7 c0 -19 -2 -20 -10 -8 -13 19 -13 30 0 30 6 0 10 -10 10 -22z m138 -3
c6 -14 8 -25 4 -25 -12 0 -32 23 -32 37 0 22 16 15 28 -12z m-991 -7 c-3 -8
-6 -5 -6 6 -1 11 2 17 5 13 3 -3 4 -12 1 -19z m273 7 c0 -8 -4 -15 -10 -15 -5
0 -10 7 -10 15 0 8 5 15 10 15 6 0 10 -7 10 -15z m460 0 c0 -8 -4 -15 -10 -15
-5 0 -10 7 -10 15 0 8 5 15 10 15 6 0 10 -7 10 -15z m-1480 -30 c0 -19 -4 -35
-10 -35 -11 0 -14 53 -3 63 11 12 13 8 13 -28z m500 31 c0 -3 -4 -8 -10 -11
-5 -3 -10 -1 -10 4 0 6 5 11 10 11 6 0 10 -2 10 -4z m713 -12 c-4 -10 1 -22
11 -30 10 -7 15 -18 11 -25 -6 -8 -12 -4 -21 12 -16 28 -18 59 -4 59 5 0 7 -7
3 -16z m662 -12 c0 -31 -19 -28 -23 4 -3 18 0 25 10 22 7 -3 13 -14 13 -26z
m-1440 9 c3 -5 1 -12 -5 -16 -5 -3 -10 1 -10 9 0 18 6 21 15 7z m200 -21 c-5
-8 -11 -8 -17 -2 -6 6 -7 16 -3 22 5 8 11 8 17 2 6 -6 7 -16 3 -22z m465 9 c0
-5 -7 -9 -15 -9 -15 0 -20 12 -9 23 8 8 24 -1 24 -14z m719 12 c9 -6 10 -10 2
-16 -15 -8 -41 1 -41 15 0 12 20 13 39 1z m-1579 -22 c0 -6 -4 -7 -10 -4 -5 3
-10 11 -10 16 0 6 5 7 10 4 6 -3 10 -11 10 -16z m130 11 c0 -5 -4 -10 -10 -10
-5 0 -10 5 -10 10 0 6 5 10 10 10 6 0 10 -4 10 -10z m460 -16 c0 -8 -4 -12
-10 -9 -5 3 -10 13 -10 21 0 8 5 12 10 9 6 -3 10 -13 10 -21z m70 11 c0 -8 -4
-15 -10 -15 -5 0 -10 7 -10 15 0 8 5 15 10 15 6 0 10 -7 10 -15z m-793 -17
c-3 -8 -6 -5 -6 6 -1 11 2 17 5 13 3 -3 4 -12 1 -19z m933 13 c0 -12 -29 -35
-36 -28 -11 10 5 37 21 37 8 0 15 -4 15 -9z m644 3 c18 -7 12 -24 -10 -24 -8
0 -14 7 -14 15 0 17 2 18 24 9z m-1634 -20 c0 -9 8 -23 17 -30 10 -7 14 -16
10 -21 -5 -4 -14 0 -21 10 -7 9 -18 17 -25 17 -13 0 -13 2 -5 24 8 21 24 21
24 0z m717 -6 c-3 -8 -6 -5 -6 6 -1 11 2 17 5 13 3 -3 4 -12 1 -19z m403 6 c0
-8 -4 -12 -10 -9 -5 3 -10 10 -10 16 0 5 5 9 10 9 6 0 10 -7 10 -16z m120 0
c0 -8 -4 -12 -10 -9 -5 3 -10 10 -10 16 0 5 5 9 10 9 6 0 10 -7 10 -16z m200
-9 c0 -8 -4 -15 -10 -15 -5 0 -10 7 -10 15 0 8 5 15 10 15 6 0 10 -7 10 -15z
m-1233 -25 c-2 -24 -17 -15 -17 11 0 11 4 18 9 14 6 -3 9 -14 8 -25z m133 14
c0 -8 -4 -12 -10 -9 -5 3 -10 10 -10 16 0 5 5 9 10 9 6 0 10 -7 10 -16z m57
-6 c-3 -8 -6 -5 -6 6 -1 11 2 17 5 13 3 -3 4 -12 1 -19z m263 -4 c0 -8 -4 -12
-10 -9 -5 3 -10 13 -10 21 0 8 5 12 10 9 6 -3 10 -13 10 -21z m268 14 c-6 -18
-28 -21 -28 -4 0 9 7 16 16 16 9 0 14 -5 12 -12z m455 -21 c-3 -5 -10 -4 -15
1 -6 6 -7 16 -3 22 6 9 9 9 16 -1 4 -7 5 -17 2 -22z m207 23 c0 -5 -9 -10 -20
-10 -11 0 -20 5 -20 10 0 6 9 10 20 10 11 0 20 -4 20 -10z m-1450 -10 c0 -5
-4 -10 -10 -10 -5 0 -10 5 -10 10 0 6 5 10 10 10 6 0 10 -4 10 -10z m387 4
c-3 -3 -12 -4 -19 -1 -8 3 -5 6 6 6 11 1 17 -2 13 -5z m347 -13 c7 -10 -33
-23 -47 -14 -10 6 11 23 30 23 6 0 14 -4 17 -9z m433 -13 c-3 -8 -6 -5 -6 6
-1 11 2 17 5 13 3 -3 4 -12 1 -19z m194 -11 c-8 -8 -11 -7 -11 4 0 20 13 34
18 19 3 -7 -1 -17 -7 -23z m-241 -11 c0 -19 7 -42 16 -51 12 -11 14 -19 6 -27
-13 -13 -27 13 -37 70 -4 28 -3 42 4 42 6 0 11 -15 11 -34z m-510 -18 c0 -4
-7 -8 -15 -8 -10 0 -15 10 -15 28 1 26 1 26 15 8 8 -11 15 -23 15 -28z m50 27
c0 -8 -7 -15 -16 -15 -14 0 -14 3 -4 15 7 8 14 15 16 15 2 0 4 -7 4 -15z m652
-17 c-15 -15 -26 -4 -18 18 5 13 9 15 18 6 9 -9 9 -15 0 -24z m-1352 7 c0 -19
-11 -19 -36 0 -18 14 -18 14 9 15 17 0 27 -5 27 -15z m70 -21 c0 -18 -14 -18
-30 1 -16 19 -3 40 16 24 8 -6 14 -18 14 -25z m240 21 c0 -8 -4 -15 -10 -15
-5 0 -10 7 -10 15 0 8 5 15 10 15 6 0 10 -7 10 -15z m70 -6 c0 -5 -4 -9 -10
-9 -5 0 -10 7 -10 16 0 8 5 12 10 9 6 -3 10 -10 10 -16z m707 -1 c-3 -8 -6 -5
-6 6 -1 11 2 17 5 13 3 -3 4 -12 1 -19z m-47 -16 c0 -15 -2 -15 -10 -2 -13 20
-13 33 0 25 6 -3 10 -14 10 -23z m-529 -25 c-15 -15 -24 -2 -16 24 7 20 8 21
17 5 7 -12 7 -21 -1 -29z m71 28 c0 -5 -5 -11 -11 -13 -6 -2 -11 4 -11 13 0 9
5 15 11 13 6 -2 11 -8 11 -13z m723 5 c11 -5 14 -9 6 -9 -8 -1 -20 -9 -27 -18
-16 -22 -25 -14 -17 15 6 24 8 25 38 12z m-1039 -25 c12 -26 9 -35 -13 -35 -8
0 -13 12 -13 30 0 36 11 39 26 5z m-126 -6 c0 -5 -7 -9 -15 -9 -15 0 -20 12
-9 23 8 8 24 -1 24 -14z m315 -9 c-5 -8 -11 -8 -17 -2 -6 6 -7 16 -3 22 5 8
11 8 17 2 6 -6 7 -16 3 -22z m792 13 c2 -6 -3 -13 -12 -16 -10 -5 -15 0 -15
14 0 21 21 22 27 2z m-1042 -3 c3 -5 -3 -10 -14 -10 -12 0 -21 5 -21 10 0 6 6
10 14 10 8 0 18 -4 21 -10z m914 -20 c9 -26 8 -30 -8 -30 -14 0 -18 7 -17 30
1 38 11 38 25 0z m-781 2 c2 -7 -3 -12 -12 -12 -9 0 -16 7 -16 16 0 17 22 14
28 -4z m62 -2 c0 -5 -7 -10 -15 -10 -8 0 -15 5 -15 10 0 6 7 10 15 10 8 0 15
-4 15 -10z m597 -5 c9 -25 -4 -29 -17 -6 -7 15 -7 21 0 21 6 0 13 -7 17 -15z
m61 -5 c11 -18 10 -20 -12 -20 -19 0 -23 4 -19 20 3 11 8 20 12 20 3 0 12 -9
19 -20z"/>
<path d="M2806 5334 c-4 -19 -10 -42 -13 -50 -4 -10 3 -14 27 -14 35 0 36 8
10 75 -13 33 -17 32 -24 -11z"/>
<path d="M3557 5320 c-34 -27 -61 -100 -53 -142 13 -67 81 -100 132 -63 27 18
54 74 54 110 0 40 -27 91 -56 104 -35 15 -47 14 -77 -9z"/>
<path d="M1752 5052 c-40 -33 -41 -57 -2 -77 39 -20 84 -3 74 29 -7 22 -33 76
-37 76 -1 0 -17 -13 -35 -28z"/>
<path d="M4168 5027 c-32 -26 -68 -89 -68 -118 0 -51 58 -95 111 -84 56 13
111 107 96 168 -7 26 -55 57 -89 57 -12 0 -35 -10 -50 -23z"/>
<path d="M2705 4940 c-55 -9 -113 -21 -130 -25 -60 -14 -201 -56 -220 -65 -11
-5 -44 -18 -72 -30 -51 -19 -146 -66 -228 -113 -22 -12 -85 -54 -140 -92 -109
-76 -347 -305 -404 -390 -19 -27 -54 -79 -79 -115 -63 -92 -159 -288 -199
-405 -19 -55 -48 -163 -65 -240 -30 -133 -31 -152 -31 -365 -1 -192 2 -241 21
-330 67 -330 165 -555 344 -796 223 -300 511 -510 893 -650 103 -38 266 -17
470 62 33 12 78 28 100 35 22 7 58 18 80 24 87 28 165 43 297 60 66 8 144 -4
181 -29 25 -17 33 -30 35 -59 4 -41 6 -43 59 -23 21 7 58 19 83 26 25 7 62 19
83 26 20 8 53 14 71 14 47 0 99 24 191 88 389 269 663 664 769 1105 40 165 48
243 48 442 0 197 -6 255 -51 460 -41 190 -180 486 -308 653 -211 276 -454 468
-773 610 -114 50 -299 101 -456 126 -140 22 -434 20 -569 -4z m425 -35 c117
-7 234 -25 325 -50 33 -9 74 -20 90 -24 52 -14 207 -77 285 -116 197 -99 444
-293 553 -434 105 -136 155 -207 185 -261 115 -210 171 -364 221 -610 31 -152
31 -493 1 -630 -38 -175 -54 -231 -102 -360 -46 -125 -177 -346 -279 -472
-173 -211 -441 -423 -570 -448 -92 -18 -180 -43 -185 -52 -12 -19 -53 -8 -66
19 -20 40 -57 62 -123 73 -73 12 -209 5 -290 -16 -112 -29 -140 -36 -190 -51
-27 -9 -54 -19 -59 -24 -6 -5 -20 -9 -32 -9 -13 0 -26 -4 -29 -10 -3 -5 -13
-10 -22 -10 -8 0 -29 -6 -46 -14 -108 -46 -276 -68 -348 -45 -553 179 -987
601 -1167 1134 -73 216 -95 358 -96 600 0 196 6 257 45 425 115 492 469 948
921 1183 89 47 250 114 303 128 17 4 57 15 90 24 33 9 85 21 115 26 67 13 329
37 350 33 8 -1 62 -5 120 -9z"/>
<path d="M2950 4745 c-9 -11 -10 -34 -4 -87 5 -40 8 -77 9 -83 0 -5 -11 -9
-25 -7 -37 4 -107 -26 -130 -55 -21 -27 -27 -89 -12 -121 5 -9 21 -42 35 -72
37 -76 35 -92 -15 -133 -51 -40 -138 -91 -145 -84 -2 3 3 26 11 51 9 26 16 53
16 60 0 24 -34 56 -75 70 l-40 14 0 59 0 58 -35 0 -35 0 0 -59 0 -60 -35 -9
c-74 -19 -96 -67 -65 -141 14 -33 14 -37 0 -43 -24 -9 -85 28 -92 57 -4 15 4
54 21 102 16 45 26 88 22 101 -5 23 -118 97 -149 97 -9 0 -37 -25 -64 -55 -33
-38 -56 -55 -72 -55 -29 0 -87 -42 -96 -69 -7 -22 14 -70 39 -90 27 -23 20
-43 -13 -36 -47 10 -70 -24 -55 -82 8 -29 34 -30 34 -2 0 17 4 19 23 13 12 -4
33 -7 46 -6 21 2 23 -1 17 -28 -7 -40 6 -72 38 -89 33 -18 43 -9 27 25 -10 23
-9 32 14 65 31 48 32 98 4 149 -31 54 -20 108 22 117 16 3 32 10 35 14 3 5 14
9 25 9 18 0 19 -4 13 -37 -4 -21 -11 -46 -15 -55 -5 -9 -9 -34 -9 -55 0 -30 6
-45 28 -64 34 -31 95 -59 127 -59 14 0 25 -4 25 -8 0 -16 -25 -32 -50 -32 -38
0 -90 -54 -90 -94 0 -73 29 -102 72 -72 25 18 93 22 103 6 3 -6 -4 -10 -17
-10 -13 0 -35 -6 -49 -14 -47 -24 -94 -28 -133 -9 -44 21 -53 13 -30 -26 35
-59 120 -77 162 -34 16 16 17 15 22 -18 6 -42 32 -50 48 -14 6 14 28 33 47 42
30 14 41 15 68 5 19 -7 47 -12 63 -12 22 0 34 -8 49 -33 53 -87 64 -114 65
-159 0 -41 -5 -52 -36 -83 -25 -25 -41 -34 -53 -30 -41 18 -51 17 -51 -2 0
-30 29 -63 56 -63 28 0 31 -8 7 -26 -25 -18 -79 -18 -87 1 -7 20 -42 19 -50
-1 -16 -41 -6 -82 25 -108 25 -22 29 -29 19 -41 -16 -20 -70 -29 -100 -17 -14
5 -38 22 -53 36 -34 31 -31 65 8 106 13 14 29 38 35 54 17 45 -16 97 -130 210
-55 55 -100 106 -100 113 0 8 -13 13 -34 13 -29 0 -39 7 -70 48 -19 27 -40 60
-45 75 -6 15 -19 27 -32 29 -16 2 -42 32 -87 98 -35 52 -67 102 -70 110 -25
56 -97 173 -110 178 -9 3 -26 -7 -44 -26 -24 -28 -28 -40 -28 -96 0 -67 15
-114 57 -177 40 -61 18 -58 -38 4 -56 63 -80 70 -97 32 -24 -53 -10 -132 35
-193 30 -40 25 -48 -20 -33 -37 13 -67 6 -67 -14 0 -39 16 -79 46 -114 19 -22
31 -42 27 -44 -5 -3 -25 -5 -46 -4 -21 1 -44 -6 -52 -14 -14 -14 -12 -20 13
-57 15 -24 45 -54 66 -68 43 -30 41 -37 -15 -40 -41 -2 -69 -18 -69 -39 0 -17
65 -82 101 -100 29 -16 31 -35 4 -35 -8 0 -26 -12 -42 -26 -34 -32 -26 -49 43
-84 l49 -26 -32 -32 c-18 -18 -33 -37 -33 -42 0 -20 52 -43 96 -42 49 0 54 -6
24 -33 -11 -10 -23 -34 -26 -53 -9 -44 12 -62 71 -62 41 0 41 -1 37 -31 -3
-21 -12 -33 -30 -40 -13 -5 -45 -30 -69 -54 -24 -25 -48 -45 -53 -45 -24 0
-48 -69 -54 -156 -6 -82 -4 -94 17 -135 13 -24 32 -68 42 -96 11 -30 27 -55
37 -58 9 -4 28 -19 42 -36 24 -29 77 -41 90 -20 6 8 73 32 129 45 16 4 39 1
57 -9 41 -21 44 -20 69 30 12 25 26 44 29 42 23 -12 244 -117 247 -117 2 0 65
-29 141 -65 l137 -65 -27 -21 c-21 -17 -34 -20 -64 -14 -20 4 -39 10 -42 15
-19 30 -108 -17 -187 -99 -58 -59 -70 -97 -58 -181 4 -31 3 -50 -3 -50 -5 0
-17 -12 -27 -26 -14 -22 -15 -30 -4 -55 15 -38 41 -51 82 -44 28 6 35 2 56
-25 26 -36 115 -80 160 -80 57 0 140 41 185 91 41 46 45 48 74 38 21 -7 42 -7
67 0 35 9 38 8 72 -30 19 -21 42 -39 50 -39 7 0 31 18 53 40 35 36 41 38 70
30 47 -13 87 -2 128 37 30 29 40 33 54 24 28 -17 77 -13 109 9 l28 21 108 -51
c59 -28 116 -55 125 -60 9 -5 34 -12 56 -16 32 -5 43 -2 69 20 17 14 34 37 37
51 13 51 200 440 216 450 20 13 48 -6 65 -45 10 -22 26 -47 36 -56 11 -10 19
-22 19 -27 0 -23 52 -118 63 -114 6 2 15 17 18 33 4 16 15 54 24 84 9 30 20
69 25 85 5 17 21 68 36 115 16 50 29 116 32 160 2 41 8 81 14 87 7 9 5 15 -8
19 -21 8 -64 44 -64 54 0 3 15 12 33 18 17 7 43 27 57 45 21 26 25 42 25 94 0
57 -3 65 -34 97 -19 20 -54 43 -77 52 -40 15 -44 15 -89 -5 -27 -12 -50 -19
-53 -16 -3 3 -5 20 -5 38 0 17 -4 38 -10 45 -7 9 2 12 41 12 63 0 86 19 76 64
-3 17 -15 40 -25 52 -28 30 -24 34 29 34 82 0 101 42 43 94 -22 20 -20 36 5
36 25 0 94 52 94 70 0 19 -33 45 -65 51 -28 6 -30 27 -2 34 13 4 42 24 62 45
35 36 37 42 27 65 -11 24 -29 30 -79 26 -12 -1 -24 3 -28 9 -3 5 -2 10 3 10
18 0 100 80 112 110 17 41 5 52 -59 52 l-51 0 34 38 c30 34 56 91 56 127 0 19
-39 26 -71 13 -41 -18 -46 -7 -16 37 31 46 40 77 39 123 -4 103 -25 113 -92
44 -25 -25 -54 -50 -65 -56 -19 -11 -19 -10 -2 13 36 49 71 135 75 185 4 48
-9 86 -46 142 -13 19 -53 -23 -90 -90 -15 -28 -31 -58 -37 -67 -110 -181 -147
-231 -171 -231 -7 0 -26 -24 -43 -52 -31 -54 -76 -108 -89 -108 -5 0 -12 4
-18 10 -6 6 -25 -10 -53 -45 -25 -31 -68 -76 -97 -100 -61 -52 -114 -128 -114
-162 0 -29 12 -54 45 -89 33 -36 32 -74 -2 -106 -33 -30 -69 -40 -113 -32 -44
9 -47 28 -11 65 36 36 42 86 13 113 -18 15 -20 15 -37 -4 -20 -22 -74 -27 -93
-8 -18 18 -15 25 16 31 18 4 33 16 41 33 15 34 2 51 -28 35 -16 -9 -27 -9 -43
0 -42 21 -58 51 -58 109 0 46 6 66 38 119 20 35 42 65 47 66 6 2 36 8 67 15
73 17 114 2 135 -48 14 -33 15 -34 34 -16 14 13 18 25 14 43 l-6 24 28 -18
c44 -29 111 -22 146 15 45 49 30 80 -21 44 -25 -17 -36 -16 -134 14 -32 9 -58
20 -58 25 0 14 79 7 108 -10 43 -25 62 -6 62 61 0 61 -20 87 -84 108 -44 15
-60 38 -26 38 12 0 46 12 76 26 72 34 94 73 75 136 -8 24 -18 53 -24 66 -18
39 4 48 60 25 45 -18 48 -22 51 -58 2 -26 -4 -52 -18 -78 -25 -44 -21 -93 11
-138 22 -31 24 -50 8 -66 -13 -13 -4 -33 15 -33 7 0 23 11 35 24 17 18 22 33
19 62 -3 38 -2 39 36 45 32 5 39 3 43 -12 8 -30 35 -19 47 18 12 38 -9 63 -54
63 -43 0 -53 17 -23 41 27 23 44 75 34 102 -9 24 -64 57 -94 57 -9 0 -32 20
-52 44 -19 24 -49 49 -65 56 -26 11 -35 9 -92 -26 -35 -21 -67 -43 -71 -48
-11 -16 -2 -66 23 -118 13 -29 20 -60 18 -84 -3 -34 -8 -40 -51 -62 -26 -14
-50 -22 -54 -19 -3 4 1 21 10 39 38 84 26 127 -45 150 l-43 15 0 59 0 59 -40
0 -40 0 0 -59 0 -59 -43 -15 c-55 -18 -78 -61 -60 -114 6 -18 15 -39 21 -46
17 -22 -2 -27 -34 -8 -16 10 -41 23 -55 31 -34 18 -104 81 -104 95 0 6 14 40
31 76 35 76 46 148 27 184 -18 35 -95 72 -136 66 -37 -5 -35 -17 -13 105 12
67 0 89 -47 89 -23 0 -45 -6 -52 -15z m154 -600 c18 -14 39 -25 47 -25 8 0 25
-9 39 -20 21 -16 22 -20 7 -20 -10 0 -27 5 -38 10 -11 6 -24 8 -29 5 -14 -9
10 -43 35 -50 20 -5 20 -5 0 -21 -20 -15 -20 -15 3 -34 12 -10 22 -23 22 -28
0 -14 -67 -44 -104 -47 -39 -3 -45 -22 -12 -35 32 -12 32 -11 3 -58 -26 -42
-51 -102 -64 -150 -11 -46 -27 -45 -33 3 -3 22 -23 70 -43 106 -20 36 -37 71
-37 78 0 6 12 16 26 21 33 13 27 32 -11 35 -42 3 -105 32 -105 47 0 7 9 19 20
26 24 14 26 32 5 32 -21 0 -19 9 10 36 29 27 34 50 8 39 -32 -13 -63 -18 -63
-9 0 5 15 15 33 23 17 8 50 26 72 40 44 28 117 42 153 29 13 -4 38 -19 56 -33z
m640 -1164 c3 -5 16 -11 28 -14 57 -12 282 -98 300 -114 11 -10 26 -30 34 -45
13 -25 13 -32 -1 -59 -9 -16 -24 -33 -33 -36 -22 -8 -41 -34 -41 -53 0 -23 58
-82 75 -76 8 3 19 18 25 33 39 99 75 133 141 133 27 0 46 -8 68 -27 62 -56 43
-141 -40 -183 -36 -19 -47 -20 -101 -10 -32 6 -64 8 -69 5 -18 -11 -11 -71 10
-90 17 -16 25 -16 62 -6 51 14 88 4 112 -31 23 -32 20 -70 -14 -178 -17 -52
-36 -115 -44 -140 -8 -25 -17 -58 -21 -73 -9 -41 -29 -28 -33 21 -2 29 -8 42
-18 42 -10 0 -14 12 -14 40 0 44 -6 49 -27 23 -13 -16 -14 -15 -10 12 2 17 6
37 8 45 3 10 -2 14 -14 12 -16 -3 -17 2 -11 34 6 34 5 36 -16 29 -21 -7 -22
-5 -15 27 6 27 5 31 -6 21 -26 -25 -40 -15 -33 22 5 29 3 35 -11 35 -13 0 -16
6 -12 22 4 13 0 29 -10 40 -14 16 -14 18 1 24 9 3 13 10 10 15 -3 5 -22 -2
-42 -14 -39 -25 -375 -191 -404 -201 -30 -9 -20 -33 39 -90 70 -67 125 -95
191 -98 42 -2 56 2 77 22 35 32 32 64 -10 107 -39 40 -42 45 -20 37 8 -4 22
-3 31 0 15 6 15 9 -5 29 -27 30 -27 39 2 33 12 -3 34 -7 49 -10 87 -19 90
-228 3 -268 -20 -9 -22 -14 -14 -30 7 -13 6 -26 -5 -46 -8 -15 -33 -66 -55
-114 -23 -49 -47 -88 -54 -88 -6 0 -25 7 -41 15 -40 21 -56 19 -56 -9 0 -17 9
-27 30 -36 43 -18 56 -45 35 -76 -15 -23 -21 -25 -58 -18 -23 3 -56 17 -73 30
-17 13 -33 24 -36 24 -7 0 -284 129 -426 198 l-73 35 -17 -24 c-36 -52 -86
-100 -121 -116 -39 -19 -147 -24 -193 -9 -27 8 -28 7 -28 -32 0 -23 -4 -44
-10 -47 -5 -3 -10 -13 -10 -22 0 -24 -39 -72 -81 -99 -53 -33 -144 -34 -194
-1 -52 33 -45 47 18 40 108 -11 187 52 187 150 0 51 -1 52 -30 37 -11 -5 -29
-15 -40 -20 -11 -6 -66 -33 -123 -61 -56 -28 -114 -57 -129 -65 -26 -14 -46
-5 -34 15 5 8 220 121 304 160 17 8 32 20 32 26 0 28 -108 55 -163 41 -32 -8
-117 -93 -117 -117 0 -25 -17 -24 -25 1 -15 48 5 103 56 153 54 52 83 67 131
67 31 0 111 -34 136 -58 18 -17 28 -8 43 36 6 20 22 51 35 69 l24 32 -22 15
c-12 9 -26 16 -31 16 -5 0 -65 27 -134 60 -68 33 -126 60 -128 60 -2 0 -57 25
-122 56 -65 31 -138 65 -162 77 l-44 20 -24 -29 c-12 -16 -23 -35 -23 -42 0
-9 -15 -11 -60 -6 -47 4 -66 2 -85 -10 -13 -9 -34 -16 -45 -16 -12 0 -28 -7
-37 -16 -11 -10 -25 -13 -47 -8 -34 7 -43 17 -52 54 -3 14 -9 33 -15 42 -5 10
-9 22 -9 28 0 6 -9 24 -21 39 -21 28 -22 37 -16 162 2 56 18 89 43 89 7 0 20
13 28 29 20 38 58 61 99 61 19 0 40 7 47 15 7 8 20 15 30 15 9 0 31 7 48 16
46 22 86 2 90 -45 2 -19 10 -40 18 -48 8 -8 14 -21 14 -29 0 -22 51 -94 66
-94 24 0 26 -21 4 -67 -11 -25 -20 -47 -18 -48 4 -5 360 -173 453 -215 28 -13
100 -47 161 -76 108 -51 112 -52 195 -51 l84 2 6 46 c8 52 49 137 82 166 55
49 164 67 234 38 20 -8 39 -13 42 -10 3 4 8 50 11 103 4 53 12 110 19 127 34
80 107 134 183 135 86 0 178 -71 178 -139 0 -44 -28 -97 -43 -82 -7 7 -12 19
-12 28 0 25 -26 28 -32 4 -9 -36 -23 -23 -23 21 0 74 -58 102 -120 57 -45 -33
-63 -94 -58 -199 4 -113 18 -134 70 -103 69 43 369 193 383 193 19 0 19 19 0
26 -8 4 -15 14 -15 24 0 10 -9 20 -20 23 -23 6 -27 27 -5 27 29 0 15 18 -20
24 -31 6 -50 26 -25 26 15 0 12 26 -5 40 -11 9 -13 16 -5 24 16 16 12 23 -15
30 -27 7 -32 20 -13 32 7 5 -1 12 -23 19 -33 12 -43 30 -15 30 8 0 18 4 22 8
4 4 0 7 -8 7 -9 0 -18 7 -22 15 -3 8 -12 15 -21 15 -20 0 -19 10 3 26 16 12
16 13 -3 20 -24 8 -65 44 -65 56 0 11 27 10 34 -1z m-1179 -157 c19 -47 19
-103 -1 -143 -12 -24 -13 -35 -4 -46 16 -19 -34 -44 -77 -38 -20 3 -33 1 -33
-5 0 -6 -9 -13 -19 -17 -35 -11 -101 -83 -101 -110 0 -14 -3 -25 -7 -25 -12 0
-93 42 -99 51 -3 5 4 26 15 45 27 45 26 52 -4 66 -31 14 -32 26 -3 30 24 3 54
47 62 92 8 42 16 44 16 3 0 -36 15 -58 51 -77 14 -8 28 -5 59 15 40 25 40 25
40 89 0 64 0 64 38 84 49 27 49 27 67 -14z m918 26 c19 -1 44 -23 51 -47 5
-16 1 -27 -15 -40 -12 -10 -37 -31 -56 -47 -28 -24 -36 -26 -49 -15 -33 27 6
169 43 155 8 -3 20 -6 26 -6z m157 -279 c5 -11 10 -28 10 -37 0 -14 -6 -12
-30 11 -22 21 -27 31 -18 37 19 12 26 10 38 -11z m240 -31 c0 -19 -20 -27 -33
-13 -8 7 11 33 24 33 5 0 9 -9 9 -20z m-173 -86 c6 -17 -29 -27 -39 -12 -4 7
-8 17 -8 21 0 12 43 4 47 -9z m-897 -80 c17 -15 37 -42 45 -61 14 -32 13 -37
-6 -64 -30 -43 -89 -37 -89 8 0 23 -3 25 -32 19 -62 -12 -90 48 -43 98 33 35
82 35 125 0z m1154 -1 c9 -22 -7 -31 -46 -25 l-32 5 23 18 c29 23 47 24 55 2z
m-170 -98 c-5 -26 -1 -43 16 -70 12 -19 26 -35 31 -35 5 0 9 -9 9 -20 0 -20
-17 -25 -65 -20 -28 2 -95 43 -125 75 -28 30 -35 23 65 76 70 37 77 36 69 -6z
m-1220 -590 c6 -16 1 -19 -46 -29 -40 -9 -44 11 -6 28 43 19 45 19 52 1z"/>
<path d="M1939 2671 c-13 -10 -40 -22 -59 -26 -43 -9 -69 -30 -86 -72 -19 -45
-17 -83 6 -118 12 -18 17 -38 14 -52 -12 -45 47 -73 76 -38 7 9 34 25 60 36
71 31 108 107 78 162 -7 12 -14 39 -17 61 -4 24 -14 44 -27 52 -18 13 -24 12
-45 -5z m10 -81 c10 -5 24 -22 30 -39 21 -49 -23 -111 -77 -111 -25 0 -72 55
-72 83 1 54 71 93 119 67z"/>
<path d="M4000 2550 c0 -5 4 -10 9 -10 6 0 13 5 16 10 3 6 -1 10 -9 10 -9 0
-16 -4 -16 -10z"/>
<path d="M3245 2293 c-52 -14 -95 -75 -109 -155 -8 -46 4 -49 61 -17 73 42
191 99 203 99 6 0 10 8 8 17 -6 32 -114 69 -163 56z m18 -60 c11 -10 -13 -33
-34 -33 -22 0 -24 11 -7 28 13 13 31 16 41 5z"/>
<path d="M3340 2146 c-41 -23 -97 -51 -125 -63 -63 -27 -68 -47 -18 -68 87
-38 117 -43 154 -27 50 22 87 78 95 146 6 51 5 56 -12 55 -11 -1 -53 -20 -94
-43z m50 -49 c0 -19 -37 -50 -49 -42 -18 10 -12 30 12 41 31 16 37 16 37 1z"/>
<path d="M3565 2014 c-14 -31 -27 -61 -28 -66 -2 -9 68 -57 85 -58 12 0 58 85
58 108 0 12 -6 22 -14 22 -7 0 -19 7 -26 16 -35 41 -48 37 -75 -22z"/>
<path d="M2812 1997 c-38 -39 -48 -84 -17 -79 11 2 27 10 35 17 8 7 32 18 53
26 20 7 37 18 37 25 0 9 -56 44 -72 44 -2 0 -18 -15 -36 -33z"/>
<path d="M3766 1958 c-18 -25 -5 -58 23 -58 20 0 47 52 36 69 -11 18 -43 12
-59 -11z"/>
<path d="M2888 1919 c-54 -28 -98 -54 -98 -59 0 -10 63 -30 95 -30 29 0 79 33
110 74 23 30 25 39 15 51 -7 8 -15 15 -19 14 -3 0 -50 -23 -103 -50z"/>
<path d="M3400 1905 c-13 -16 -6 -35 15 -35 7 0 26 -8 43 -17 31 -18 62 -13
62 11 0 13 -74 56 -97 56 -6 0 -16 -7 -23 -15z"/>
<path d="M1487 4740 c18 -44 27 -48 55 -23 17 16 17 17 -19 39 -51 31 -54 30
-36 -16z"/>
<path d="M4523 4796 c-28 -29 -29 -48 -5 -69 13 -12 26 -14 47 -9 38 11 46 51
16 81 -26 26 -31 26 -58 -3z"/>
<path d="M4431 4676 l-33 -34 30 -21 c47 -33 92 -23 92 20 0 17 -36 69 -49 69
-4 0 -22 -15 -40 -34z"/>
<path d="M4760 4479 c-30 -10 -59 -24 -64 -29 -11 -11 29 -60 49 -60 10 0 40
38 78 97 10 17 4 16 -63 -8z"/>
<path d="M4966 4204 c-20 -19 -20 -37 -1 -75 l16 -29 39 20 c37 19 39 23 29
43 -29 56 -55 69 -83 41z"/>
<path d="M1061 4164 c-27 -34 -27 -36 11 -57 32 -18 33 -18 50 3 21 26 23 51
6 68 -19 19 -45 14 -67 -14z"/>
<path d="M780 3492 c-25 -2 -49 -7 -53 -12 -9 -8 59 -60 79 -60 10 0 31 69 22
74 -2 0 -23 0 -48 -2z"/>
<path d="M682 3188 c-7 -7 -12 -27 -12 -45 0 -32 1 -33 43 -33 43 0 44 0 39
33 -7 53 -40 75 -70 45z"/>
<path d="M890 2540 c-14 -5 -51 -16 -82 -26 -61 -18 -66 -26 -46 -69 9 -20 17
-25 32 -21 12 3 58 6 103 6 l82 0 -10 33 c-24 87 -31 93 -79 77z"/>
<path d="M4836 2058 c-35 -50 -7 -103 41 -77 42 22 45 50 10 76 -17 13 -32 23
-33 23 -2 0 -10 -10 -18 -22z"/>
<path d="M1108 1873 c-19 -22 -31 -70 -20 -77 9 -5 105 59 110 73 3 9 -31 21
-59 21 -9 0 -23 -8 -31 -17z"/>
<path d="M1185 1784 c-59 -40 -60 -41 -25 -59 49 -26 80 -8 80 45 0 22 -3 40
-8 40 -4 0 -25 -12 -47 -26z"/>
<path d="M4702 1720 c-12 -16 -22 -31 -22 -34 0 -4 105 -46 115 -46 7 0 -7 33
-32 73 -13 20 -27 37 -31 37 -5 0 -18 -13 -30 -30z"/>
</g>
</svg>
