<svg id="Layer_1" data-name="Layer 1" xmlns="http://www.w3.org/2000/svg" viewBox="0 0 86.8 94.1"><title>19_1</title><path d="M85.9,31.5c-.5-4.8-4.1-11.1-7.9-14,0,0-5.8-4.3-13-8.5A140.46,140.46,0,0,0,51.2,1.8,19.87,19.87,0,0,0,43.3.3a19.2,19.2,0,0,0-7.9,1.5A154.7,154.7,0,0,0,21.6,9c-7.2,4.3-13,8.5-13,8.5-3.9,2.9-7.4,9.2-7.9,14,0,0-.8,7.2-.8,15.8S.7,63.1.7,63.1c.5,4.8,4.1,11.1,7.9,14,0,0,5.8,4.3,13,8.6a140.46,140.46,0,0,0,13.8,7.2,19.87,19.87,0,0,0,7.9,1.5,19.2,19.2,0,0,0,7.9-1.5A154.7,154.7,0,0,0,65,85.7c7.2-4.3,13-8.6,13-8.6,3.9-2.9,7.4-9.2,7.9-14,0,0,.8-7.2.8-15.8S85.9,31.5,85.9,31.5Zm-4,31a19.13,19.13,0,0,1-6.3,11.2c-.1,0-5.7,4.2-12.6,8.3a132.79,132.79,0,0,1-13.4,7,16.54,16.54,0,0,1-6.3,1.1A16.54,16.54,0,0,1,37,89a146.16,146.16,0,0,1-13.4-7C16.7,78,11,73.8,11,73.8c-3-2.2-6-7.5-6.4-11.3,0-.1-.7-7.1-.7-15.3s.7-15.3.7-15.3A19.29,19.29,0,0,1,11,20.6c.1,0,5.7-4.2,12.6-8.3A132.79,132.79,0,0,1,37,5.3a16.54,16.54,0,0,1,6.3-1.1,16.54,16.54,0,0,1,6.3,1.1,146.16,146.16,0,0,1,13.4,7c6.9,4.1,12.6,8.3,12.6,8.3,3,2.2,6,7.5,6.3,11.2,0,.1.7,7.1.7,15.3S81.9,62.5,81.9,62.5Z" transform="translate(0.1 -0.3)" fill="#000"/><path d="M39.3,52.6a2,2,0,0,0,2-2V46.1h4.1v4.5a2,2,0,0,0,4,0V37.7a2,2,0,0,0-4,0v4.5H41.3V37.7a2,2,0,0,0-4,0V50.6A2,2,0,0,0,39.3,52.6Z" transform="translate(0.1 -0.3)" fill="#000"/><path d="M55.3,52.6a2,2,0,0,0,2-2V46.1h4.1v4.5a2,2,0,0,0,4,0V37.7a2,2,0,0,0-4,0v4.5H57.3V37.7a2,2,0,0,0-4,0V50.6A2,2,0,0,0,55.3,52.6Z" transform="translate(0.1 -0.3)" fill="#000"/><path d="M71.9,25.7H14.6a2,2,0,0,0-2,2v40a2,2,0,0,0,2,2H71.9a2,2,0,0,0,2-2v-40A2,2,0,0,0,71.9,25.7Zm-2,40H16.6v-36H69.9Z" transform="translate(0.1 -0.3)" fill="#000"/><path d="M20.8,60.7H65.6a2,2,0,0,0,0-4H20.8a2,2,0,1,0,0,4Z" transform="translate(0.1 -0.3)" fill="#000"/><circle cx="31.7" cy="50.4" r="2" fill="#000"/><path d="M32.2,35.8a1.82,1.82,0,0,0-2.2.8l-5.4,7.7V37.7a2,2,0,0,0-4,0v13a2,2,0,0,0,3.86.73L29.6,44.1v6.6a2,2,0,0,0,4,0v-13A2,2,0,0,0,32.2,35.8Z" transform="translate(0.1 -0.3)" fill="#000"/></svg>