<?xml version="1.0" standalone="no"?>
<!DOCTYPE svg PUBLIC "-//W3C//DTD SVG 20010904//EN"
 "http://www.w3.org/TR/2001/REC-SVG-20010904/DTD/svg10.dtd">
<svg version="1.0" xmlns="http://www.w3.org/2000/svg"
 width="900.000000pt" height="980.000000pt" viewBox="0 0 900.000000 980.000000"
 preserveAspectRatio="xMidYMid meet">

<g transform="translate(0.000000,980.000000) scale(0.100000,-0.100000)"
fill="#000000" stroke="none">
<path d="M4042 9779 c-43 -8 -118 -56 -157 -100 -11 -12 -42 -39 -68 -60 -27
-22 -77 -82 -117 -141 -67 -98 -70 -105 -60 -138 5 -19 10 -84 11 -145 1 -111
10 -116 24 -13 6 46 7 47 58 66 128 48 269 75 427 81 140 6 149 8 95 15 -119
17 -393 -10 -507 -50 -50 -17 -68 -18 -68 -1 0 14 134 66 255 99 67 18 109 21
255 22 159 0 185 -2 285 -27 95 -24 257 -73 276 -83 6 -3 -7 -84 -15 -91 -1
-2 -34 8 -73 21 -85 29 -191 46 -270 45 l-58 -2 75 -8 c125 -15 320 -73 320
-96 0 -4 -5 -24 -10 -44 l-10 -36 -60 9 c-226 30 -686 27 -865 -7 -146 -28
-131 -17 -144 -104 -20 -136 24 -309 83 -327 12 -3 32 -16 46 -29 37 -33 78
-52 148 -65 73 -15 75 -19 36 -118 -50 -129 -160 -204 -336 -228 -85 -12 -119
-22 -195 -59 -55 -27 -97 -54 -104 -67 -7 -13 -15 -25 -19 -28 -11 -8 -105
-164 -215 -360 -123 -219 -305 -579 -370 -730 -26 -63 -66 -139 -88 -169 -22
-29 -96 -139 -165 -245 -69 -105 -150 -224 -180 -265 -65 -88 -110 -171 -186
-342 -31 -69 -69 -141 -85 -160 -26 -31 -192 -129 -219 -129 -6 0 -34 44 -61
98 -46 88 -51 103 -51 164 l0 67 -42 12 c-64 17 -149 7 -192 -22 -44 -29 -84
-106 -92 -175 l-6 -49 58 -15 59 -15 60 -117 60 -117 -24 -25 c-22 -24 -24
-31 -18 -100 5 -53 3 -86 -8 -115 -13 -37 -12 -43 12 -90 40 -81 124 -141 196
-141 10 0 31 7 46 14 28 15 28 15 51 -34 l23 -49 -184 -191 c-101 -106 -184
-196 -184 -202 0 -6 7 -15 16 -21 19 -12 32 -7 273 107 88 42 161 75 162 73 1
-1 91 -166 199 -367 109 -201 210 -387 225 -415 15 -27 121 -223 235 -435 285
-529 642 -1188 795 -1470 70 -129 146 -271 170 -314 l43 -80 -11 -185 c-12
-190 -23 -253 -48 -282 -8 -9 -17 -32 -20 -51 -6 -31 -2 -38 32 -65 22 -17 49
-35 61 -42 12 -6 23 -21 25 -33 4 -28 41 -48 91 -48 46 0 237 61 276 89 16 12
71 35 122 53 90 30 101 32 254 32 156 1 162 0 248 -31 93 -34 224 -51 290 -39
44 8 117 76 117 110 0 13 -12 40 -26 61 -24 36 -25 41 -13 88 20 84 5 241 -53
536 l-22 113 23 162 c13 88 50 337 82 551 134 875 184 1261 221 1686 17 195
17 817 0 979 -35 332 -124 629 -229 766 -15 21 -35 64 -44 96 -15 55 -15 60 0
65 85 27 101 53 126 206 8 53 19 107 24 119 4 12 6 97 3 188 -5 192 10 310 63
502 l34 120 -16 64 c-9 35 -14 66 -11 69 4 5 82 -17 426 -120 261 -77 476
-133 547 -141 43 -5 60 -1 125 31 41 20 102 53 135 73 74 44 272 191 304 226
30 32 45 33 36 4 -9 -30 -223 -693 -281 -870 l-46 -138 -50 0 -50 0 7 -37 c16
-87 89 -179 187 -237 153 -90 405 -119 608 -71 188 45 349 180 376 313 6 32 6
32 -34 32 l-41 0 -20 68 c-11 37 -59 204 -106 372 -48 168 -122 430 -166 583
-43 153 -79 282 -79 288 0 5 236 9 615 9 338 0 615 -3 615 -7 0 -6 -243 -742
-388 -1178 l-37 -110 -42 -3 c-50 -4 -52 -12 -27 -86 21 -62 108 -151 189
-193 99 -52 194 -74 340 -80 156 -6 274 16 390 72 126 60 235 184 235 266 0
26 -2 27 -35 23 -56 -7 -69 7 -94 98 -25 92 -179 636 -272 962 -32 115 -59
215 -59 222 0 10 14 14 46 14 l46 0 -7 33 c-4 17 -10 35 -14 39 -4 4 -65 19
-136 32 -163 30 -669 136 -674 141 -2 2 8 7 22 10 59 15 40 48 -81 142 -48 37
-115 92 -149 123 -34 31 -77 64 -96 75 -34 18 -35 18 -148 -14 -63 -18 -128
-41 -145 -52 -39 -24 -162 -152 -209 -218 -49 -68 -159 -150 -390 -288 -150
-90 -378 -213 -395 -213 -9 0 -105 34 -215 76 -110 41 -242 91 -292 109 -79
28 -110 47 -210 125 -64 51 -130 101 -147 111 -39 22 -149 53 -430 119 l-218
52 -73 70 c-80 75 -105 117 -105 172 l0 36 66 0 c73 0 128 13 162 39 38 28 99
209 111 326 l8 80 -35 53 -35 54 21 61 c50 141 46 207 -17 304 -55 86 -181
214 -243 248 -46 26 -63 30 -128 29 -52 -1 -91 -7 -128 -22 -44 -18 -57 -20
-75 -10 -40 22 -121 35 -165 27z m3313 -1684 c-48 -16 -83 -19 -69 -6 10 10
46 18 84 19 19 0 15 -3 -15 -13z m-3820 -128 c241 -222 653 -290 1044 -171 94
28 304 125 373 171 64 44 77 48 38 13 -130 -117 -357 -231 -568 -284 -362 -92
-710 -41 -949 138 -67 50 -163 150 -163 169 0 7 26 28 57 47 l57 35 40 -45
c23 -25 55 -57 71 -73z m4913 -124 c11 -38 66 -230 122 -428 56 -198 128 -454
161 -568 32 -115 59 -214 59 -222 0 -12 -64 -14 -399 -15 -238 0 -402 3 -405
9 -4 5 -1 22 5 38 11 29 40 118 269 823 72 223 133 411 135 418 3 6 11 12 19
12 9 0 21 -25 34 -67z m-3318 -59 c-64 -272 -163 -570 -250 -750 -143 -297
-375 -544 -643 -684 -93 -49 -101 -51 -150 -45 -29 4 -104 22 -167 40 -63 18
-133 36 -155 40 l-41 6 -13 77 c-7 42 -15 102 -18 132 l-6 54 52 -47 c94 -84
264 -187 309 -187 53 0 261 109 372 195 60 47 200 186 251 250 167 209 325
533 436 892 20 67 39 121 40 119 2 -2 -6 -43 -17 -92z m1904 19 c10 -39 293
-1042 321 -1135 l23 -78 -419 0 c-312 0 -419 3 -419 12 0 6 84 264 187 572
l186 561 50 52 c28 29 54 50 58 48 4 -3 10 -17 13 -32z m-3579 -953 l67 -275
-12 -96 c-21 -160 -2 -206 97 -235 29 -8 53 -17 53 -20 0 -2 -75 -153 -166
-336 l-166 -331 -16 -131 c-24 -194 -23 -934 1 -1211 47 -532 126 -1092 242
-1716 20 -105 34 -193 32 -195 -1 -2 -45 79 -96 179 -52 100 -129 250 -171
332 -43 83 -130 254 -195 380 -134 262 -278 542 -405 790 -48 94 -147 287
-220 430 -73 143 -159 311 -191 372 l-57 113 154 146 c140 133 154 150 154
181 0 18 -6 36 -13 39 -7 2 -102 -36 -210 -86 -109 -49 -208 -92 -221 -96 -22
-5 -24 -2 -54 59 -2 4 8 7 22 7 14 0 29 8 34 18 5 9 24 82 42 162 18 80 39
159 48 175 32 63 100 146 355 430 168 187 279 357 294 451 12 71 502 771 523
747 4 -4 38 -132 75 -283z m1542 118 c-3 -8 -6 -5 -6 6 -1 11 2 17 5 13 3 -3
4 -12 1 -19z m-12 -70 c-16 -105 -50 -220 -91 -304 -34 -73 -58 -107 -119
-168 l-75 -76 -68 1 c-37 1 -94 4 -126 8 l-60 6 87 43 c186 92 324 209 379
322 28 58 68 174 68 197 0 7 3 13 6 13 3 0 3 -19 -1 -42z m-1155 -1165 c96
-63 214 -141 262 -173 l86 -58 32 23 c18 13 87 73 153 132 116 105 165 144
141 112 -106 -141 -153 -189 -341 -347 l-131 -111 -48 32 c-65 43 -149 128
-205 207 -43 61 -209 344 -209 356 0 3 19 -9 43 -26 23 -18 121 -84 217 -147z
m1135 -778 c-8 -266 -41 -806 -65 -1064 -86 -926 -221 -1586 -439 -2143 -36
-91 -46 -108 -64 -108 -12 0 -116 -11 -232 -25 -115 -13 -211 -22 -213 -20 -2
1 17 13 41 25 114 57 264 198 353 331 297 448 467 1187 549 2394 18 275 33
565 40 805 3 102 9 228 12 280 7 93 7 91 15 -95 5 -104 6 -275 3 -380z m-2745
-189 c0 -2 32 -70 71 -152 84 -175 110 -229 389 -814 433 -907 531 -1113 690
-1445 89 -187 181 -378 203 -425 38 -82 71 -180 62 -188 -2 -3 -60 110 -128
249 -69 140 -276 560 -462 934 -685 1380 -915 1848 -915 1859 0 6 12 19 27 28
27 16 28 16 45 -13 10 -16 18 -31 18 -33z m1375 -1482 c91 -453 141 -632 229
-834 56 -127 92 -183 114 -176 29 9 292 56 313 56 10 0 19 -3 19 -6 0 -15 -90
-112 -149 -160 -58 -48 -186 -124 -208 -124 -5 0 -29 46 -52 102 -164 388
-245 705 -316 1243 -14 105 -27 206 -30 225 -4 28 -3 31 5 15 6 -11 39 -165
75 -341z m1370 -546 c-16 -153 -40 -294 -100 -593 -35 -176 -67 -352 -71 -392
-7 -78 -9 -72 79 -236 51 -94 48 -110 -11 -54 -63 58 -90 71 -186 91 -44 9
-81 18 -83 20 -2 2 12 36 31 77 111 240 186 465 260 789 32 138 76 346 76 356
0 2 3 4 6 4 3 0 3 -28 -1 -62z"/>
<path d="M374 5936 c-178 -220 -218 -467 -139 -864 14 -69 27 -128 30 -130 8
-9 38 23 51 53 6 17 16 77 20 135 4 58 9 108 10 113 1 4 2 34 3 67 0 33 6 60
11 60 6 0 10 -75 10 -206 0 -165 3 -205 13 -201 11 4 11 -9 0 -72 -14 -79 -6
-186 18 -247 11 -28 13 -25 89 126 44 85 79 153 79 150 1 -3 -23 -72 -53 -155
-46 -128 -52 -154 -43 -180 5 -16 13 -34 17 -38 10 -12 122 122 174 208 77
128 106 226 106 359 0 64 -31 251 -44 264 -8 7 -73 -44 -144 -116 -35 -35 -61
-55 -58 -45 3 10 10 59 16 108 18 147 -7 335 -71 532 -22 67 -43 124 -47 126
-4 3 -26 -18 -48 -47z"/>
<path d="M8183 5953 c-28 -67 -72 -223 -89 -317 -20 -111 -20 -309 -1 -389
l15 -58 -67 69 c-69 73 -138 128 -147 120 -13 -13 -44 -200 -44 -266 0 -175
77 -352 229 -522 l49 -55 11 28 c18 45 14 65 -39 211 -27 76 -50 141 -49 145
0 3 35 -64 79 -149 77 -152 78 -154 90 -125 27 69 30 235 5 315 -6 20 -5 23 6
13 7 -7 15 -13 18 -13 4 0 5 102 4 227 -2 253 8 252 27 -5 7 -92 18 -178 25
-192 16 -31 51 -64 58 -53 3 4 17 76 33 158 37 204 40 420 6 539 -35 123 -92
229 -174 324 l-28 33 -17 -38z"/>
<path d="M68 5044 c-3 -5 -15 -38 -26 -74 -89 -277 -38 -516 181 -859 l61 -94
13 29 c18 42 17 47 -33 245 -25 100 -43 183 -41 185 2 3 32 -73 67 -168 35
-95 69 -184 75 -197 12 -24 12 -24 24 -4 6 12 18 50 26 85 44 188 -15 414
-169 645 -72 108 -169 222 -178 207z"/>
<path d="M8488 4988 c-68 -77 -158 -209 -198 -289 -101 -199 -127 -429 -65
-575 l16 -39 13 25 c7 14 41 103 76 198 35 95 65 170 67 168 2 -2 -17 -85 -42
-184 -49 -198 -50 -203 -32 -246 l13 -29 54 84 c81 125 165 293 194 388 33
103 43 237 27 341 -11 74 -47 197 -61 213 -4 5 -32 -20 -62 -55z"/>
<path d="M723 4642 c-124 -99 -228 -248 -268 -386 -21 -71 -17 -250 6 -305
l15 -34 74 156 c40 86 75 155 77 153 2 -1 -20 -71 -49 -154 -49 -145 -51 -153
-39 -194 l13 -43 35 40 c174 199 246 354 246 535 0 108 -31 270 -53 270 -4 0
-30 -17 -57 -38z"/>
<path d="M7814 4623 c-10 -35 -19 -106 -22 -180 -4 -112 -2 -130 21 -205 31
-99 91 -202 183 -318 l68 -85 12 30 c19 45 18 52 -36 211 -27 81 -50 149 -49
153 0 3 34 -63 75 -148 43 -89 78 -151 83 -145 16 18 31 103 31 179 0 189 -95
368 -272 516 -33 27 -63 49 -68 49 -5 0 -16 -26 -26 -57z"/>
<path d="M35 4006 c-17 -205 33 -397 149 -573 78 -119 336 -396 352 -380 4 4
8 29 8 55 1 46 -39 129 -191 402 -46 82 3 18 123 -160 64 -96 129 -187 143
-201 14 -14 34 -40 44 -58 10 -19 20 -31 23 -29 3 3 16 66 30 139 42 223 52
274 53 264 0 -5 -4 -95 -9 -200 -10 -171 -9 -194 6 -227 9 -21 21 -38 26 -38
22 0 122 259 149 385 18 85 16 246 -5 325 -16 62 -98 243 -129 284 -13 18 -18
13 -71 -67 -66 -99 -121 -220 -144 -318 -18 -73 -26 -83 -38 -46 -14 48 -117
191 -196 273 -80 84 -233 211 -289 240 l-27 14 -7 -84z"/>
<path d="M8459 4011 c-167 -126 -327 -305 -387 -433 -18 -40 -32 -49 -32 -22
0 31 -42 159 -76 231 -19 40 -58 107 -86 149 -59 89 -51 92 -122 -46 -119
-230 -121 -441 -7 -728 21 -54 48 -116 59 -137 l19 -38 27 45 c26 44 26 47 17
144 -15 150 -24 310 -18 304 3 -3 22 -97 41 -209 20 -112 38 -206 41 -209 2
-3 12 10 22 29 10 18 30 44 44 58 14 14 79 105 144 201 119 177 169 242 123
160 -14 -25 -64 -118 -112 -206 -82 -154 -86 -164 -80 -208 4 -25 10 -46 13
-46 10 0 219 215 268 275 108 133 183 281 214 420 15 69 17 321 3 335 -6 6
-47 -19 -115 -69z"/>
<path d="M905 3228 c-12 -36 -26 -193 -26 -296 0 -252 54 -422 174 -550 47
-49 114 -99 122 -91 2 3 -3 33 -10 69 -63 296 -75 354 -72 356 2 2 31 -82 66
-186 53 -161 66 -192 91 -210 53 -38 54 -35 47 153 -12 362 -96 560 -302 713
-80 59 -84 60 -90 42z"/>
<path d="M7654 3208 c-27 -17 -80 -64 -119 -103 -151 -154 -214 -359 -215
-692 0 -124 5 -133 55 -90 19 16 42 68 85 192 32 94 59 166 59 160 0 -5 -17
-93 -39 -195 -21 -102 -37 -186 -35 -188 9 -9 78 43 125 94 66 73 92 120 131
234 30 88 32 107 37 261 4 156 -8 317 -27 347 -5 9 -21 3 -57 -20z"/>
<path d="M165 3119 c30 -246 134 -444 310 -593 100 -85 379 -266 391 -253 2 2
1 25 -2 50 -6 42 -20 61 -151 209 -175 197 -189 213 -138 167 22 -19 109 -98
193 -173 84 -76 156 -136 159 -132 3 3 -1 42 -10 86 -53 271 -280 498 -652
653 -113 46 -108 47 -100 -14z"/>
<path d="M8354 3132 c-368 -154 -595 -378 -650 -642 -8 -40 -14 -80 -12 -89 2
-10 48 24 142 109 189 170 245 218 220 189 -11 -13 -82 -92 -156 -176 -123
-138 -136 -156 -142 -199 -3 -26 -4 -49 -2 -52 11 -11 275 159 381 245 141
115 256 296 294 463 25 108 35 190 24 190 -4 0 -49 -18 -99 -38z"/>
<path d="M1462 2608 c-33 -149 -38 -405 -11 -555 26 -148 93 -294 177 -384 55
-60 145 -126 150 -111 1 5 -18 105 -43 223 -25 118 -48 226 -51 242 -14 68 9
11 77 -193 71 -212 75 -222 111 -245 21 -14 40 -25 43 -25 9 0 5 298 -6 402
-21 195 -83 359 -184 486 -55 69 -148 151 -216 191 l-36 21 -11 -52z"/>
<path d="M7070 2611 c-190 -142 -292 -299 -340 -526 -17 -76 -23 -150 -27
-312 -3 -117 -3 -213 1 -213 3 0 22 10 41 23 37 24 40 30 140 320 26 76 50
135 53 133 2 -3 -3 -36 -11 -73 -42 -181 -87 -386 -87 -399 0 -26 60 13 135
90 82 82 132 170 169 298 49 171 57 411 21 619 -8 46 -15 85 -15 87 0 9 -23
-5 -80 -47z"/>
<path d="M505 2233 c80 -191 239 -364 420 -455 115 -59 339 -120 524 -143 52
-7 53 -7 46 16 -19 65 -39 80 -237 188 -109 59 -200 110 -204 113 -5 5 308
-120 439 -175 22 -10 37 -12 37 -5 0 22 -72 145 -111 191 -161 188 -481 307
-823 307 l-106 0 15 -37z"/>
<path d="M7806 2254 c-339 -52 -570 -195 -685 -421 -37 -74 -32 -76 87 -26
179 76 345 143 348 140 1 -1 -86 -50 -194 -108 -195 -105 -197 -107 -225 -159
l-27 -53 62 7 c184 21 411 85 545 155 166 86 306 240 387 424 l26 57 -118 -1
c-64 -1 -157 -7 -206 -15z"/>
<path d="M1960 1895 c0 -14 14 -80 30 -146 108 -426 320 -687 598 -734 23 -4
42 -4 42 -2 0 3 -31 52 -68 109 -38 57 -93 141 -122 188 -29 47 -60 96 -69
110 -38 58 13 0 144 -163 l140 -174 49 -7 c26 -4 49 -6 51 -4 5 7 -88 240
-135 336 -91 189 -215 338 -341 410 -59 34 -209 86 -276 97 -42 7 -43 6 -43
-20z"/>
<path d="M6555 1900 c-303 -80 -487 -275 -638 -680 -20 -52 -40 -108 -46 -124
l-11 -28 47 6 c56 8 64 15 228 219 61 75 114 136 119 137 5 0 4 -6 -1 -12 -5
-7 -36 -53 -68 -103 -32 -49 -89 -137 -127 -194 -38 -57 -66 -106 -63 -110 3
-3 38 3 78 13 277 70 479 347 571 784 l24 112 -22 -1 c-11 0 -52 -8 -91 -19z"/>
<path d="M1250 1504 c-105 -13 -170 -27 -170 -37 0 -26 115 -179 185 -245 131
-126 293 -201 507 -238 89 -15 438 -32 438 -22 0 3 -11 26 -25 50 -19 35 -35
49 -68 61 -416 152 -490 184 -322 138 127 -35 418 -102 422 -97 11 10 -81 128
-143 184 -97 88 -230 150 -394 187 -73 16 -353 28 -430 19z"/>
<path d="M7032 1499 c-267 -34 -490 -159 -603 -337 -16 -25 -27 -47 -26 -49 5
-4 164 31 351 78 87 22 160 38 163 36 2 -2 -94 -40 -214 -83 -222 -79 -247
-93 -278 -154 l-17 -33 174 6 c342 11 552 73 734 217 76 61 234 254 234 286 0
33 -349 55 -518 33z"/>
<path d="M2726 1377 c58 -229 158 -422 283 -548 63 -63 127 -103 214 -134 l60
-22 -41 -7 c-123 -19 -310 -99 -463 -198 -105 -66 -107 -71 -67 -101 66 -50
165 -105 238 -132 100 -36 267 -46 388 -21 99 20 227 64 341 117 46 21 85 39
86 39 2 0 5 -42 7 -94 4 -113 17 -136 82 -136 23 0 47 4 54 9 25 15 30 79 27
333 -3 310 -2 293 -21 312 -16 17 -89 22 -112 8 -23 -15 -32 -76 -32 -226 0
-143 -1 -148 -18 -133 -16 14 -34 15 -157 7 -77 -5 -183 -12 -235 -14 l-95 -6
90 18 c50 10 158 31 240 46 83 16 154 32 158 36 14 13 -109 90 -184 115 -39
14 -104 27 -145 31 l-74 7 -127 175 c-71 97 -132 183 -137 191 -19 32 20 -8
155 -159 133 -149 134 -150 177 -150 23 0 42 2 42 4 0 2 -13 34 -29 72 -133
319 -255 482 -428 572 -84 43 -210 82 -269 82 l-32 0 24 -93z"/>
<path d="M5774 1450 c-249 -65 -411 -231 -559 -572 -30 -71 -55 -131 -55 -136
0 -4 20 -6 45 -4 44 4 47 7 187 163 178 200 188 206 68 44 -36 -49 -94 -129
-128 -176 l-62 -86 -76 -7 c-41 -4 -108 -19 -147 -33 -72 -25 -178 -89 -181
-108 0 -5 109 -30 243 -55 135 -25 238 -46 229 -48 -9 -2 -114 4 -234 12
l-217 15 -31 -26 -31 -26 -5 194 c-3 107 -9 200 -13 207 -11 16 -109 16 -125
0 -9 -9 -12 -94 -12 -319 0 -344 -1 -339 69 -339 66 0 76 15 79 129 2 56 7
101 11 101 5 0 50 -20 102 -44 348 -162 602 -179 837 -56 42 22 99 56 125 76
58 42 58 42 -54 114 -125 80 -279 150 -394 180 l-105 27 43 12 c238 71 443
354 522 724 l13 57 -37 -1 c-20 0 -68 -9 -107 -19z"/>
<path d="M2284 945 c-105 -19 -257 -69 -354 -115 l-85 -42 80 -77 c168 -161
360 -234 575 -217 116 10 415 76 463 103 5 3 -8 21 -27 41 l-36 35 -209 20
c-116 12 -208 24 -206 27 2 4 104 10 226 13 122 3 224 9 228 13 3 3 -21 31
-54 61 -70 64 -176 118 -272 138 -83 18 -233 18 -329 0z"/>
<path d="M5995 941 c-38 -11 -88 -27 -110 -36 -74 -31 -218 -145 -203 -160 3
-3 105 -9 227 -12 122 -3 224 -9 226 -13 2 -4 -30 -10 -73 -14 -42 -3 -137
-12 -210 -20 -133 -14 -134 -14 -162 -47 -16 -19 -25 -37 -22 -40 11 -11 169
-56 273 -78 340 -72 576 -4 798 232 l33 35 -63 33 c-83 42 -173 75 -284 105
-128 35 -331 42 -430 15z"/>
<path d="M4444 765 c-18 -43 -21 -553 -3 -604 11 -30 13 -31 70 -31 l58 0 11
38 c17 57 9 594 -9 615 -9 12 -29 17 -63 17 -47 0 -50 -2 -64 -35z"/>
<path d="M4026 755 c-14 -14 -16 -53 -16 -319 0 -230 3 -306 13 -320 10 -13
24 -17 67 -14 80 4 80 1 80 333 0 329 0 329 -77 333 -36 2 -55 -2 -67 -13z"/>
<path d="M4229 753 c-11 -13 -15 -79 -17 -311 -3 -348 -5 -342 83 -342 43 0
56 4 65 19 6 12 10 132 10 319 0 277 -1 300 -18 315 -25 23 -105 23 -123 0z"/>
</g>
</svg>
