<?xml version="1.0" standalone="no"?>
<!DOCTYPE svg PUBLIC "-//W3C//DTD SVG 20010904//EN"
 "http://www.w3.org/TR/2001/REC-SVG-20010904/DTD/svg10.dtd">
<svg version="1.0" xmlns="http://www.w3.org/2000/svg"
 width="50.000000pt" height="50.000000pt" viewBox="0 0 50.000000 50.000000"
 preserveAspectRatio="xMidYMid meet">

<g transform="translate(0.000000,50.000000) scale(0.100000,-0.100000)"
fill="#000000" stroke="none">
<path d="M166 421 c-7 -11 17 -31 75 -65 52 -30 69 -32 69 -11 0 8 -27 30 -61
50 -63 37 -74 40 -83 26z"/>
<path d="M130 324 c-17 -31 -30 -57 -28 -58 2 -2 26 -16 55 -32 50 -27 53 -28
66 -10 12 17 19 14 111 -44 99 -62 131 -71 131 -35 0 15 -25 33 -100 72 -89
46 -100 55 -100 79 0 22 -10 32 -51 56 l-52 29 -32 -57z"/>
<path d="M62 238 c7 -22 129 -91 140 -80 15 15 4 27 -56 61 -56 32 -91 40 -84
19z"/>
<path d="M50 75 c0 -8 -4 -15 -10 -15 -5 0 -10 -4 -10 -10 0 -6 47 -10 120
-10 73 0 120 4 120 10 0 6 -4 10 -10 10 -5 0 -10 7 -10 15 0 12 -18 15 -100
15 -82 0 -100 -3 -100 -15z"/>
</g>
</svg>
