<svg id="Слой_1" data-name="Слой 1" xmlns="http://www.w3.org/2000/svg" viewBox="0 0 892 980.17"><title>адрес</title><path d="M63.17 1023.25q45.24-56.57 90.48-113.13Q220.32 826.85 287 743.56c1.85-2.31 3.6-3.34 6.59-3.32q40.25.17 80.49.0c3.25.0 5.08 1 6.76 3.76 7.27 12.06 14.79 24 22.76 36.82h-6.22c-28 0-56 .06-84-.07a8.62 8.62.0 00-7.53 3.68Q228.46 881.21 151 977.9c-1 1.27-2 2.58-3.49 4.52H870.78c-5.21-6.59-9.95-12.65-14.76-18.66q-72-89.89-144.11-179.68a10.26 10.26.0 00-7.09-3.14c-27.83-.22-55.66-.14-83.49-.14h-6.07a23.18 23.18.0 011.24-3c7.18-11.6 14.31-23.24 21.71-34.7a7.06 7.06.0 015.08-2.73q41-.25 82 0a7.77 7.77.0 015.36 2.46Q842.91 882.75 955 1022.79a1.87 1.87.0 01.2.46h-892z" transform="translate(-63.17 -43.08)"/><path d="M509.13 882.1c-13.17-19.87-25.9-38.76-38.33-57.84-58.58-89.95-114.45-181.5-163.25-277.2-25.6-50.2-49.41-101.23-65.72-155.38-5.71-19-10.58-38.15-11.65-58a261.21 261.21.0 0128.18-134.17c39.53-78 102-128.39 187-148.75 150.66-36.08 302 58.93 336.48 210.08 5.72 25.12 8.43 50.63 6.12 76.36-2.15 23.95-8.61 47-16.26 69.73C754 459.64 730.19 509.74 704.61 559c-49.63 95.64-106 187.29-165 277.34C529.76 851.38 519.7 866.24 509.13 882.1zm.21-419.7a139.7 139.7.0 00139.74-139.7c0-77.16-62.53-139.55-139.85-139.59-77.48.0-140.16 62.63-140 139.94A139.71 139.71.0 00509.33 462.4z" transform="translate(-63.17 -43.08)"/></svg>