<svg version="1.0" xmlns="http://www.w3.org/2000/svg"
 width="204.000000pt" height="204.000000pt" viewBox="0 0 204.000000 204.000000"
 preserveAspectRatio="xMidYMid meet">

<g transform="translate(0.000000,204.000000) scale(0.100000,-0.100000)"
fill="#32CD32" stroke="none">
<path d="M135 2011 c-22 -10 -52 -31 -67 -47 -60 -65 -58 -25 -58 -946 0 -800
1 -845 19 -883 22 -47 74 -99 114 -114 19 -8 305 -11 883 -11 768 0 858 2 887
16 45 23 76 53 98 96 18 36 19 71 19 892 0 578 -3 864 -11 883 -15 40 -67 92
-114 114 -38 18 -83 19 -885 19 -801 0 -847 -1 -885 -19z m1562 -367 c34 -54
62 -104 62 -111 1 -7 -58 -72 -130 -145 -238 -241 -356 -396 -486 -638 -27
-50 -122 -260 -136 -302 -19 -55 -70 -168 -76 -168 -4 0 -47 48 -96 107 -132
158 -223 250 -388 395 -137 120 -146 131 -136 151 30 57 132 227 139 232 7 4
133 -103 309 -263 91 -83 75 -86 136 23 45 80 147 223 233 325 101 121 482
502 496 497 6 -2 39 -48 73 -103z"/>
</g>
</svg>
