<?xml version="1.0" standalone="no"?>
<!DOCTYPE svg PUBLIC "-//W3C//DTD SVG 20010904//EN"
 "http://www.w3.org/TR/2001/REC-SVG-20010904/DTD/svg10.dtd">
<svg version="1.0" xmlns="http://www.w3.org/2000/svg"
 width="320.000000pt" height="320.000000pt" viewBox="0 0 320.000000 320.000000"
 preserveAspectRatio="xMidYMid meet">

<g transform="translate(0.000000,320.000000) scale(0.100000,-0.100000)"
fill="#000000" stroke="none">
<path d="M162 3085 c-66 -29 -63 64 -60 -1506 l3 -1421 33 -29 32 -29 1431 0
1431 0 34 34 34 34 0 1431 0 1431 -29 32 -29 33 -1424 2 c-1218 2 -1428 0
-1456 -12z m2699 -233 l29 -32 0 -1215 c0 -920 -3 -1220 -12 -1240 -26 -58 38
-55 -1282 -55 l-1216 0 -32 29 -33 29 0 1230 c0 1216 0 1230 20 1252 11 12 29
26 40 31 11 4 568 7 1238 6 l1219 -2 29 -33z"/>
<path d="M519 2681 l-29 -29 0 -1050 0 -1050 26 -31 26 -31 1059 0 1060 0 24
25 25 24 0 1060 0 1059 -31 26 -31 26 -1050 0 -1050 0 -29 -29z m1995 -121
c31 -11 34 -44 9 -80 -10 -14 -108 -137 -218 -275 -341 -426 -596 -774 -910
-1244 -105 -156 -203 -294 -218 -305 -22 -16 -46 -21 -127 -24 -144 -6 -165 0
-200 55 -16 25 -43 78 -59 117 -45 109 -121 361 -128 426 -6 57 -5 58 37 104
23 25 69 59 103 76 106 53 184 36 215 -48 6 -15 24 -65 42 -112 52 -142 72
-158 114 -92 351 547 562 849 800 1142 153 189 203 228 328 255 75 16 177 19
212 5z"/>
</g>
</svg>
