<?xml version="1.0" standalone="no"?>
<!DOCTYPE svg PUBLIC "-//W3C//DTD SVG 20010904//EN"
 "http://www.w3.org/TR/2001/REC-SVG-20010904/DTD/svg10.dtd">
<svg version="1.0" xmlns="http://www.w3.org/2000/svg"
 width="128.000000pt" height="128.000000pt" viewBox="0 0 128.000000 128.000000"
 preserveAspectRatio="xMidYMid meet">

<g transform="translate(0.000000,128.000000) scale(0.100000,-0.100000)"
fill="#000000" stroke="none">
<path d="M422 1118 c-21 -21 -13 -52 33 -121 l45 -67 148 0 147 0 40 62 c53
81 56 92 39 117 -15 20 -23 21 -228 21 -151 0 -215 -3 -224 -12z"/>
<path d="M454 841 c-102 -75 -225 -237 -299 -395 -48 -102 -65 -169 -65 -257
0 -53 3 -64 28 -89 19 -19 44 -30 73 -35 24 -3 244 -5 489 -3 480 3 473 2 502
57 19 35 13 142 -13 225 -51 168 -186 369 -324 484 l-52 42 -150 0 c-149 0
-150 0 -189 -29z m221 -128 c5 -12 22 -28 38 -34 53 -22 76 -82 36 -94 -17 -6
-27 0 -46 24 -43 55 -125 33 -125 -34 0 -35 18 -53 66 -65 103 -26 139 -61
139 -134 0 -51 -29 -98 -72 -116 -17 -7 -33 -21 -36 -31 -8 -25 -41 -24 -55 1
-6 10 -25 26 -44 35 -37 18 -73 73 -63 99 11 27 45 19 62 -14 39 -75 145 -56
145 24 0 42 -21 60 -92 81 -63 18 -103 51 -111 94 -11 54 16 112 62 131 16 6
34 23 40 36 14 30 42 29 56 -3z"/>
</g>
</svg>
