<?xml version="1.0" standalone="no"?>
<!DOCTYPE svg PUBLIC "-//W3C//DTD SVG 20010904//EN"
 "http://www.w3.org/TR/2001/REC-SVG-20010904/DTD/svg10.dtd">
<svg version="1.0" xmlns="http://www.w3.org/2000/svg"
 width="300.000000pt" height="300.000000pt" viewBox="0 0 300.000000 300.000000"
 preserveAspectRatio="xMidYMid meet">

<g transform="translate(0.000000,300.000000) scale(0.100000,-0.100000)"
fill="#000000" stroke="none">
<path d="M1350 2993 c-237 -35 -370 -76 -539 -163 -411 -213 -696 -598 -788
-1065 -24 -125 -24 -405 0 -530 29 -148 74 -279 142 -413 317 -623 1019 -945
1696 -777 422 105 776 387 974 777 116 230 160 413 160 678 0 265 -44 448
-160 678 -258 509 -779 826 -1345 820 -63 0 -126 -2 -140 -5z m376 -168 c420
-72 780 -339 975 -722 95 -186 139 -378 139 -603 0 -342 -109 -632 -337 -896
-37 -43 -49 -51 -56 -39 -6 12 -29 15 -102 15 l-95 0 0 869 0 869 -142 118
c-77 66 -146 118 -152 116 -6 -1 -219 -78 -473 -169 l-463 -167 0 -43 c0 -48
-1 -47 35 -33 14 6 199 66 410 135 211 69 391 128 399 131 14 6 16 -88 16
-975 l0 -981 228 -2 227 -3 -67 -48 c-148 -106 -350 -189 -542 -222 -117 -20
-336 -19 -457 1 -239 41 -493 163 -658 317 l-41 38 0 619 0 619 193 61 c105
34 266 85 357 114 l165 53 3 -773 2 -774 185 0 185 0 0 788 0 787 -112 65
c-61 36 -119 69 -128 73 -11 6 -155 -40 -451 -144 -239 -83 -453 -158 -476
-166 l-43 -15 -2 -586 -3 -587 -48 67 c-106 148 -189 350 -222 542 -19 115
-19 337 0 452 72 418 339 780 718 973 108 55 255 104 372 125 109 19 350 20
461 1z"/>
<path d="M935 1727 l-220 -73 -3 -103 c-3 -102 -3 -103 20 -95 12 4 112 30
221 59 109 29 200 55 203 58 3 2 3 54 2 115 l-3 111 -220 -72z"/>
<path d="M928 1363 l-218 -55 0 -100 c0 -90 2 -99 18 -94 9 3 100 21 202 41
102 19 195 37 208 40 21 5 22 9 22 115 0 61 -3 110 -7 109 -5 0 -106 -26 -225
-56z"/>
<path d="M945 1010 c-93 -16 -185 -32 -202 -35 l-33 -6 0 -94 c0 -52 1 -95 3
-95 1 0 94 9 207 20 113 11 213 20 223 20 15 0 17 12 17 110 0 130 26 120
-215 80z"/>
<path d="M945 664 c-88 -6 -177 -13 -197 -13 l-38 -1 0 -100 0 -100 225 0 225
0 0 115 0 115 -27 -1 c-16 -1 -100 -8 -188 -15z"/>
</g>
</svg>
