<?xml version="1.0" standalone="no"?>
<!DOCTYPE svg PUBLIC "-//W3C//DTD SVG 20010904//EN"
 "http://www.w3.org/TR/2001/REC-SVG-20010904/DTD/svg10.dtd">
<svg version="1.0" xmlns="http://www.w3.org/2000/svg"
 width="178.000000pt" height="178.000000pt" viewBox="0 0 178.000000 178.000000"
 preserveAspectRatio="xMidYMid meet">

<g transform="translate(0.000000,178.000000) scale(0.100000,-0.100000)"
fill="#000000" stroke="none">
<path d="M796 1720 c-102 -26 -210 -111 -269 -210 -109 -186 -55 -476 122
-657 112 -115 253 -145 379 -82 122 60 230 210 272 376 34 133 23 239 -37 355
-70 135 -198 217 -346 224 -45 2 -99 -1 -121 -6z"/>
<path d="M495 764 c-154 -53 -344 -162 -379 -216 -26 -40 -68 -200 -61 -236
17 -91 176 -183 405 -232 86 -19 288 -45 295 -39 1 2 -35 171 -81 374 -46 204
-84 371 -84 373 0 6 -31 -2 -95 -24z"/>
<path d="M1196 773 c-16 -51 -164 -728 -161 -732 3 -2 62 3 132 12 294 37 503
124 554 231 l21 43 -20 81 c-12 45 -29 98 -38 118 -31 66 -183 160 -366 228
-112 41 -115 42 -122 19z"/>
<path d="M819 606 l41 -66 -35 -241 c-19 -133 -35 -246 -35 -250 0 -5 48 -9
106 -9 l106 0 -5 32 c-4 18 -20 131 -37 251 l-31 218 35 58 c20 32 36 61 36
64 0 3 -19 0 -42 -5 -41 -9 -128 -5 -163 8 -11 5 -3 -15 24 -60z"/>
</g>
</svg>
