<?xml version="1.0" standalone="no"?>
<!DOCTYPE svg PUBLIC "-//W3C//DTD SVG 20010904//EN"
 "http://www.w3.org/TR/2001/REC-SVG-20010904/DTD/svg10.dtd">
<svg version="1.0" xmlns="http://www.w3.org/2000/svg"
 width="980.000000pt" height="980.000000pt" viewBox="0 0 980.000000 980.000000"
 preserveAspectRatio="xMidYMid meet">

<g transform="translate(0.000000,980.000000) scale(0.100000,-0.100000)"
fill="#000000" stroke="none">
<path d="M4560 9789 c-1035 -75 -1998 -463 -2800 -1128 -150 -123 -501 -475
-622 -621 -881 -1068 -1270 -2403 -1098 -3765 119 -934 501 -1801 1124 -2545
98 -117 370 -393 496 -504 1328 -1166 3158 -1531 4825 -962 895 305 1700 879
2281 1627 735 946 1100 2126 1024 3314 -70 1095 -490 2107 -1215 2935 -146
166 -427 434 -600 573 -756 606 -1609 958 -2575 1062 -174 19 -664 27 -840 14z
m585 -929 c862 -58 1646 -371 2302 -919 1178 -982 1681 -2567 1288 -4056 -361
-1374 -1446 -2458 -2820 -2820 -744 -196 -1520 -174 -2255 66 -888 290 -1672
913 -2155 1714 -647 1073 -751 2385 -283 3545 62 153 195 418 283 565 280 464
673 882 1126 1200 726 509 1635 763 2514 705z"/>
<path d="M4530 8056 c-547 -70 -943 -247 -1298 -581 -333 -313 -546 -741 -579
-1165 l-6 -75 519 -63 c286 -35 534 -65 552 -65 l34 -2 23 90 c71 271 183 483
340 641 89 90 166 145 284 204 357 178 897 151 1209 -61 113 -78 234 -215 295
-334 56 -111 72 -188 71 -340 0 -125 -3 -149 -27 -220 -15 -44 -45 -114 -68
-155 -59 -106 -219 -261 -584 -565 -628 -522 -829 -781 -925 -1190 -44 -188
-67 -477 -55 -694 l8 -131 583 0 583 0 -5 53 c-17 224 -24 479 -15 537 25 155
157 314 511 615 505 430 797 725 946 955 101 157 179 355 208 529 21 122 21
356 1 481 -55 338 -220 646 -495 920 -332 332 -732 521 -1281 606 -144 22
-683 28 -829 10z"/>
<path d="M4320 2270 l0 -550 600 0 600 0 0 550 0 550 -600 0 -600 0 0 -550z"/>
</g>
</svg>
