<svg version="1.0" xmlns="http://www.w3.org/2000/svg"
 width="840.000000pt" height="840.000000pt" viewBox="0 0 840.000000 840.000000"
 preserveAspectRatio="xMidYMid meet">

<g transform="translate(0.000000,840.000000) scale(0.100000,-0.100000)"
fill="#FF8C00" stroke="none">
<path d="M3965 8094 c-22 -2 -91 -9 -153 -14 -237 -22 -518 -79 -769 -156
-1287 -397 -2295 -1458 -2621 -2760 -75 -296 -109 -545 -119 -859 -41 -1327
605 -2583 1717 -3337 519 -352 1094 -564 1750 -645 177 -21 643 -24 820 -5
766 84 1466 371 2055 845 742 596 1240 1445 1400 2388 41 243 50 359 49 654 0
300 -12 445 -60 705 -189 1025 -786 1937 -1649 2519 -533 360 -1098 569 -1750
647 -115 14 -586 26 -670 18z m525 -1535 c535 -57 966 -312 1224 -723 177
-281 222 -647 117 -948 -29 -85 -104 -224 -163 -303 -80 -108 -390 -412 -626
-614 -305 -262 -394 -369 -426 -511 -14 -62 -36 -290 -36 -382 l0 -38 -405 0
-405 0 -6 26 c-9 36 2 360 16 459 52 374 205 599 670 985 426 353 478 409 536
580 28 83 26 253 -4 342 -74 215 -268 376 -523 435 -114 26 -348 23 -461 -5
-208 -52 -363 -159 -478 -331 -74 -111 -144 -272 -180 -419 -14 -57 -65 -93
-172 -123 -70 -20 -107 -23 -233 -24 -128 0 -160 3 -220 22 -86 27 -143 63
-175 111 -23 32 -25 45 -24 131 6 428 344 923 784 1150 222 114 441 170 765
195 72 5 314 -3 425 -15z m-214 -3853 c119 -32 222 -116 272 -224 24 -51 27
-69 27 -167 0 -104 -2 -113 -32 -170 -41 -79 -113 -149 -193 -188 -61 -30 -71
-32 -175 -32 -98 0 -116 3 -168 27 -81 38 -168 124 -203 201 -26 56 -29 72
-29 167 0 93 3 112 27 162 83 177 288 274 474 224z"/>
</g>
</svg>
