<?xml version="1.0" standalone="no"?>
<!DOCTYPE svg PUBLIC "-//W3C//DTD SVG 20010904//EN"
 "http://www.w3.org/TR/2001/REC-SVG-20010904/DTD/svg10.dtd">
<svg version="1.0" xmlns="http://www.w3.org/2000/svg"
 width="860.000000pt" height="934.000000pt" viewBox="0 0 860.000000 934.000000"
 preserveAspectRatio="xMidYMid meet">

<g transform="translate(0.000000,934.000000) scale(0.100000,-0.100000)"
fill="#000000" stroke="none">
<path d="M4190 8916 c-19 -8 -255 -147 -525 -311 -452 -275 -1278 -776 -2010
-1220 -165 -100 -509 -309 -765 -464 -256 -155 -477 -294 -491 -307 -15 -14
-39 -49 -55 -77 -39 -73 -46 -196 -14 -279 24 -66 86 -135 151 -170 l44 -23
3760 -3 c3413 -2 3764 -1 3807 14 65 21 149 99 179 166 36 80 34 202 -4 279
-15 31 -46 74 -70 94 -23 20 -269 174 -547 342 -278 168 -676 409 -885 536
-556 337 -1494 906 -1930 1170 -209 127 -398 238 -420 248 -48 22 -172 24
-225 5z m277 -1072 c184 -41 361 -180 449 -356 173 -343 36 -754 -308 -928
-203 -102 -466 -92 -660 26 -230 140 -363 411 -328 670 22 165 79 283 195 400
177 179 401 244 652 188z"/>
<path d="M623 5725 c-3 -9 -3 -96 0 -193 5 -207 16 -246 84 -322 52 -58 122
-98 188 -107 l45 -6 2 -1276 3 -1276 477 -3 478 -2 2 1277 3 1276 55 12 c77
16 130 46 183 105 69 77 77 111 77 337 l0 193 -795 0 c-708 0 -796 -2 -802
-15z"/>
<path d="M2544 5725 c-4 -8 -4 -97 -2 -198 3 -159 7 -188 25 -229 45 -98 150
-181 248 -195 l45 -6 0 -1278 0 -1279 480 0 480 0 0 1279 0 1278 49 6 c94 11
191 81 239 171 26 50 27 56 30 259 l3 207 -796 0 c-699 0 -796 -2 -801 -15z"/>
<path d="M4464 5725 c-3 -8 -4 -97 -2 -197 3 -173 5 -186 30 -240 46 -99 140
-170 241 -184 l47 -7 0 -1278 0 -1279 480 0 480 0 0 1280 0 1280 30 0 c48 0
135 38 182 79 24 22 57 63 73 92 l30 54 3 208 3 207 -796 0 c-691 0 -796 -2
-801 -15z"/>
<path d="M6382 5542 l3 -198 33 -67 c21 -43 48 -79 77 -102 49 -41 130 -75
175 -75 l30 0 0 -1280 0 -1280 480 0 480 0 0 1280 0 1280 30 0 c48 0 135 38
183 81 26 22 58 65 74 97 27 56 28 61 31 260 l3 202 -801 0 -802 0 4 -198z"/>
<path d="M947 2213 c-4 -3 -7 -147 -7 -319 l0 -312 -197 -4 c-177 -3 -203 -5
-244 -24 -69 -32 -128 -91 -161 -159 l-28 -60 0 -235 c0 -227 1 -237 24 -286
33 -72 88 -128 154 -161 l57 -28 3755 0 3755 0 48 22 c75 35 121 77 158 145
l34 63 0 245 c0 240 -1 246 -24 295 -32 63 -93 124 -156 156 -47 23 -61 24
-252 27 l-203 3 0 320 0 319 -3353 0 c-1845 0 -3357 -3 -3360 -7z"/>
</g>
</svg>
