<?xml version="1.0" standalone="no"?>
<!DOCTYPE svg PUBLIC "-//W3C//DTD SVG 20010904//EN"
 "http://www.w3.org/TR/2001/REC-SVG-20010904/DTD/svg10.dtd">
<svg version="1.0" xmlns="http://www.w3.org/2000/svg"
 width="175.000000pt" height="175.000000pt" viewBox="0 0 175.000000 175.000000"
 preserveAspectRatio="xMidYMid meet">

<g transform="translate(0.000000,175.000000) scale(0.100000,-0.100000)"
fill="#000000" stroke="none">
<path d="M485 1444 c-323 -169 -370 -196 -370 -216 l0 -23 758 -3 c683 -2 758
-1 764 14 3 8 -1 22 -9 30 -21 22 -740 394 -758 393 -8 -1 -181 -88 -385 -195z
m592 -26 l196 -103 -202 -3 c-111 -1 -290 -1 -398 0 l-195 3 194 102 c106 56
197 102 201 102 5 1 97 -45 204 -101z"/>
<path d="M167 1114 c-4 -4 -7 -24 -7 -45 0 -48 18 -59 99 -59 l61 0 0 -257 c0
-142 4 -264 9 -271 5 -9 24 -12 52 -10 l44 3 3 268 2 267 68 0 c86 0 105 12
100 65 l-3 40 -211 3 c-115 1 -213 -1 -217 -4z"/>
<path d="M795 1108 c-20 -55 -155 -613 -151 -624 7 -18 82 -19 93 -1 4 6 19
55 33 107 l25 95 77 3 77 3 10 -38 c5 -21 18 -69 28 -108 l18 -70 41 -3 c25
-2 45 2 52 10 8 10 -6 79 -54 273 -36 143 -71 284 -80 313 l-15 52 -75 0 c-51
0 -76 -4 -79 -12z m104 -205 c12 -45 21 -86 21 -92 0 -6 -20 -11 -49 -11 l-49
0 15 58 c30 120 34 134 38 131 2 -2 13 -41 24 -86z"/>
<path d="M1185 1110 c-3 -6 25 -76 64 -156 39 -81 71 -152 71 -159 0 -7 -31
-77 -70 -156 -76 -156 -77 -169 -11 -169 37 0 37 0 86 100 27 55 52 100 55
100 3 0 28 -45 55 -100 l49 -100 42 0 c28 0 44 5 47 15 4 8 -25 78 -63 155
-39 78 -70 147 -70 154 0 7 32 79 70 160 39 81 68 151 65 156 -3 6 -26 10 -51
10 l-45 0 -46 -100 c-25 -55 -49 -100 -52 -100 -4 0 -29 45 -56 100 l-49 100
-43 0 c-23 0 -45 -5 -48 -10z"/>
<path d="M224 366 c-3 -8 -4 -31 -2 -52 l3 -39 650 0 650 0 3 53 3 52 -651 0
c-547 0 -651 -2 -656 -14z"/>
<path d="M114 206 c-3 -8 -4 -31 -2 -52 l3 -39 763 -3 763 -2 -3 52 -3 53
-758 3 c-642 2 -758 0 -763 -12z"/>
</g>
</svg>
