<svg xmlns="http://www.w3.org/2000/svg" width="13.41mm" height="13.46mm" viewBox="0 0 38 38.16">
  <defs>
    <style>
      .Graphic-Style-4 {
        fill: #000;
        stroke: #18416f;
        stroke-linecap: round;
        stroke-linejoin: round;
        stroke-width: 2px;
      }

      .cls-1 {
        fill: #18416f;
      }
    </style>
  </defs>
  <title>механические компоненты</title>
  <g id="Layer_2" data-name="Layer 2">
    <g id="Layer_2-2" data-name="Layer 2">
      <path class="Graphic-Style-4" d="M1,17.55c.48-1.17.71-1.33,2-1.34a8.24,8.24,0,0,1,2.94.55,18.7,18.7,0,0,0,3.89.75c1.11.15,1.32.31,1.35,1.43a7.94,7.94,0,0,0,8.18,8c.79,0,1,.37,1,1.06.05,1,.13,2.08.25,3.11A3.06,3.06,0,0,0,21,32.28a5.63,5.63,0,0,1,.49,2.79,2.12,2.12,0,0,1-1,2.09H17.71c-1.43-.42-1.6-.66-1.61-2.21,0-.53,0-1.06,0-1.39l-5.58-2.43c-.44.41-.94.93-1.5,1.39A1.3,1.3,0,0,1,7,32.5,18.08,18.08,0,0,1,5.45,31c-.83-.95-.82-1.55.06-2.42.47-.47,1-.86,1.45-1.22-.49-1-.9-1.72-1.21-2.48a11.19,11.19,0,0,1-.79-2.42c-.13-.79-.48-.92-1.17-.87-1,.08-2.11.11-2.78-.95Z"/>
      <path class="Graphic-Style-4" d="M37,20.61c-.4,1.14-.83,1.49-2.08,1.37a22.38,22.38,0,0,1-2.7-.59c-1-.23-2-.46-3-.66-.39-.08-.8,0-1.2-.09-.88-.1-1.14-.41-1.13-1.3a7.9,7.9,0,0,0-5.54-7.76,15,15,0,0,0-2.84-.39c-.52,0-.78-.24-.8-.78a14.54,14.54,0,0,0-1-5.62,4.9,4.9,0,0,1,0-2.69c.08-.42.68-.74,1-1.1h2.57c1.43.42,1.62.67,1.62,2.2a6.05,6.05,0,0,0,0,1.2,1,1,0,0,0,.49.62c1.45.66,2.93,1.25,4.38,1.92.41.19.65.21,1-.13a15.63,15.63,0,0,1,1.35-1.25,1.24,1.24,0,0,1,1.8,0,25.19,25.19,0,0,1,1.85,1.88,1.29,1.29,0,0,1-.09,2c-.54.55-1.13,1.05-1.57,1.46.62,1.43,1.18,2.67,1.69,3.92.23.56.19,1.38.58,1.67s1.18.14,1.79.12A1.71,1.71,0,0,1,37,17.71Z"/>
      <path class="cls-1" d="M15.49,9.4A4.33,4.33,0,0,0,17,13.14q4.13,4,8.15,8.2a4.42,4.42,0,0,0,3.57,1.48,6.28,6.28,0,0,1,6.42,5.87A1.75,1.75,0,0,1,34.67,30c-.45.37-.86-.12-1.21-.46s-1-.93-1.47-1.37a1.84,1.84,0,0,0-2.6,0c-2.1,1.87-2.71,2.81-.28,5a7.65,7.65,0,0,1,.86,1c.5.65.23,1.24-.6,1.34a6.28,6.28,0,0,1-6.67-4.81,14.5,14.5,0,0,1-.17-2.47,3.74,3.74,0,0,0-1.1-2.74c-2.79-2.78-5.56-5.57-8.31-8.39A5.41,5.41,0,0,0,8.93,15.3,5.78,5.78,0,0,1,4.27,13,6.09,6.09,0,0,1,2.85,9a1.17,1.17,0,0,1,.53-.87,1.1,1.1,0,0,1,.9.25c.63.5,1.17,1.1,1.79,1.61a1.81,1.81,0,0,0,2.54,0A13.09,13.09,0,0,0,9.87,8.76,1.85,1.85,0,0,0,9.91,6C9.37,5.4,8.74,4.85,8.22,4.2c-.21-.27-.43-.8-.3-1a1.39,1.39,0,0,1,1-.55A6.33,6.33,0,0,1,15.49,9.4Z"/>
    </g>
  </g>
</svg>
