<?xml version="1.0" standalone="no"?>
<!DOCTYPE svg PUBLIC "-//W3C//DTD SVG 20010904//EN"
 "http://www.w3.org/TR/2001/REC-SVG-20010904/DTD/svg10.dtd">
<svg version="1.0" xmlns="http://www.w3.org/2000/svg"
 width="592.000000pt" height="585.000000pt" viewBox="0 0 592.000000 585.000000"
 preserveAspectRatio="xMidYMid meet">

<g transform="translate(0.000000,585.000000) scale(0.100000,-0.100000)"
fill="#000000" stroke="none">
<path d="M985 5825 c-131 -24 -277 -75 -317 -112 -11 -10 -18 -30 -18 -52 0
-34 22 -57 375 -411 428 -429 432 -434 423 -561 -4 -53 -12 -80 -34 -116 -36
-58 -100 -109 -157 -124 -54 -14 -153 -7 -197 16 -19 9 -206 188 -415 396
-357 356 -383 379 -416 379 -46 0 -69 -25 -103 -113 -115 -292 -105 -622 28
-903 59 -123 114 -202 216 -308 279 -289 697 -408 1087 -308 l72 18 333 -333
333 -333 367 367 368 368 -334 335 -334 335 20 75 c32 119 36 353 8 490 -93
455 -434 797 -887 889 -117 24 -306 27 -418 6z"/>
<path d="M3105 5804 c-138 -22 -285 -73 -285 -100 0 -22 30 -32 185 -64 579
-121 941 -403 963 -752 6 -93 -10 -161 -50 -225 -49 -76 -38 -152 30 -226 l26
-28 -854 -857 -855 -857 200 -200 200 -201 857 855 858 856 42 -42 c81 -78
156 -104 242 -84 63 15 104 3 204 -62 51 -33 255 -194 326 -258 5 -5 -7 -26
-28 -50 -47 -51 -66 -95 -66 -151 0 -135 142 -226 265 -169 58 27 531 506 540
546 4 17 9 36 11 44 9 27 -8 101 -30 134 -32 47 -91 77 -154 77 -63 0 -99 -17
-163 -77 l-47 -44 -50 73 c-77 114 -92 150 -92 216 0 32 -7 83 -16 113 -35
120 -179 354 -326 528 -79 94 -294 292 -463 428 -370 297 -709 476 -1050 553
-88 21 -349 35 -420 24z"/>
<path d="M3296 2594 l-370 -365 369 -369 369 -369 -17 -73 c-67 -284 -36 -544
94 -798 61 -119 126 -205 227 -301 138 -133 297 -223 482 -275 140 -38 372
-45 519 -14 124 25 256 74 288 106 15 15 23 35 23 56 0 29 -35 68 -380 413
-419 420 -419 421 -420 538 0 103 52 191 145 240 59 32 183 31 245 -2 30 -15
174 -151 421 -398 l376 -374 39 3 c49 4 70 34 112 160 139 421 39 860 -268
1169 -282 283 -698 399 -1075 300 l-70 -19 -370 368 -370 368 -369 -364z"/>
<path d="M2013 2565 c-27 -11 -1925 -1704 -1977 -1763 -21 -24 -32 -96 -22
-139 8 -31 551 -584 598 -609 33 -17 98 -18 133 -2 31 14 1775 1956 1792 1995
18 42 15 102 -7 148 -26 54 -323 349 -372 370 -46 18 -102 19 -145 0z"/>
</g>
</svg>
