<?xml version="1.0" standalone="no"?>
<!DOCTYPE svg PUBLIC "-//W3C//DTD SVG 20010904//EN"
 "http://www.w3.org/TR/2001/REC-SVG-20010904/DTD/svg10.dtd">
<svg version="1.0" xmlns="http://www.w3.org/2000/svg"
 width="360.000000pt" height="412.000000pt" viewBox="0 0 360.000000 412.000000"
 preserveAspectRatio="xMidYMid meet">

<g transform="translate(0.000000,412.000000) scale(0.100000,-0.100000)"
fill="#000000" stroke="none">
<path d="M1416 4095 c-177 -45 -324 -192 -371 -370 -8 -33 -15 -74 -15 -92 l0
-32 -417 -3 c-368 -3 -422 -5 -454 -20 -54 -25 -96 -64 -127 -117 l-27 -46 0
-1485 0 -1485 29 -53 c32 -57 79 -98 135 -118 29 -10 311 -13 1376 -13 l1340
-1 50 24 c28 12 65 40 84 61 65 74 66 80 66 395 l0 285 -127 3 -128 3 0 -261
0 -260 -1285 0 -1285 0 0 1160 0 1160 1283 -2 1282 -3 3 -385 2 -385 128 0
127 0 0 670 c0 658 0 671 -21 715 -26 58 -76 108 -134 134 -43 20 -64 21 -457
24 l-412 3 -6 47 c-29 207 -156 368 -343 433 -76 27 -218 33 -296 14z m215
-259 c89 -32 169 -141 169 -231 0 -68 29 -135 80 -185 68 -69 110 -80 309 -80
145 0 172 -3 211 -21 95 -43 152 -111 166 -196 l7 -43 -1025 0 c-564 0 -1027
2 -1030 5 -3 3 -1 27 3 53 14 72 55 130 119 166 l55 31 200 5 c151 4 209 9
235 21 89 40 144 121 155 230 13 119 60 192 150 235 57 27 137 31 196 10z"/>
<path d="M512 2443 l3 -128 643 -3 642 -2 0 130 0 130 -645 0 -646 0 3 -127z"/>
<path d="M1800 1928 c-278 -208 -506 -382 -507 -386 -2 -7 985 -748 1009 -757
11 -4 12 41 10 245 l-3 250 646 0 645 0 0 260 0 260 -645 0 -646 0 1 251 c1
138 0 252 -2 254 -2 1 -230 -168 -508 -377z"/>
<path d="M515 2051 c-3 -2 -5 -60 -5 -128 l0 -123 260 0 260 0 0 129 0 129
-255 -1 c-141 -1 -258 -3 -260 -6z"/>
<path d="M512 1413 l3 -128 258 -3 257 -2 0 130 0 130 -260 0 -261 0 3 -127z"/>
<path d="M510 900 l0 -130 390 0 391 0 -3 128 -3 127 -387 3 -388 2 0 -130z"/>
</g>
</svg>
